<svg xmlns="http://www.w3.org/2000/svg" viewBox="0 0 1366 768"><defs><style>.cls-1,.cls-11,.cls-4,.cls-5,.cls-6,.cls-7{fill:#75667f;}.cls-1,.cls-10,.cls-11,.cls-12,.cls-13,.cls-14,.cls-15,.cls-16,.cls-17,.cls-2,.cls-3,.cls-4,.cls-5,.cls-6,.cls-7,.cls-8,.cls-9{stroke:#000;stroke-miterlimit:10;}.cls-1,.cls-2{stroke-width:0.52px;}.cls-12,.cls-17,.cls-2{fill:none;}.cls-10,.cls-13,.cls-3{fill:#a85285;}.cls-3{stroke-width:0.29px;}.cls-4{stroke-width:0.45px;}.cls-5{stroke-width:0.49px;}.cls-6{stroke-width:0.34px;}.cls-7{stroke-width:0.38px;}.cls-14,.cls-8{fill:#689b88;}.cls-8,.cls-9{stroke-width:0.3px;}.cls-15,.cls-9{fill:#29e2e2;}.cls-10,.cls-11,.cls-12,.cls-14{stroke-width:0.9px;}.cls-13,.cls-17{stroke-width:0.5px;}.cls-15{stroke-width:0.88px;}.cls-16{fill:#db5c56;}</style></defs><g id="bg_lines" data-name="bg lines"><path class="cls-1" d="M829,562.84c0-1.73-1.72-5.76-3.45-5.76s-2.88-.57-3.45-1.72,0-2.3,0-2.88,1.15-2.3,0-2.88c0,0,.55-4.42-4.32-4.59h-.29a4.06,4.06,0,0,0-4.31,4.59c-1.15.58,0,2.3,0,2.88s.58,1.73,0,2.88-1.73,1.72-3.45,1.72-3.45,4-3.45,5.76,2.3,11.51,1.72,14.38,2.3,1.15,2.88,2.3S812,600.24,812,600.24H823.3s.55-19.57,1.13-20.72,3.44.52,2.88-2.3S829,564.56,829,562.84Z"/><path class="cls-2" d="M817.37,582.1c0,3.83-.17,7.71,0,11.53.07,1.54-.09,3.31.07,4.81"/><path class="cls-2" d="M811,574.58c0-2.36.12-4.76,0-7.12-.07-1.45-.59-2.85-.73-4.29"/><path class="cls-2" d="M823.84,573.61v-6.2c0-1.25-.25-2.44-.24-3.67"/><path class="cls-2" d="M817.21,552.5c0-1.52,0-2.52-1.62-2.84"/><path class="cls-2" d="M819.15,550.47a2.28,2.28,0,0,0,1-.24"/><polyline class="cls-3" points="811.48 556.8 811.48 558.52 813.78 559.1 813.78 560.25 814.36 561.4"/><polyline class="cls-3" points="815.02 559.92 814.36 559.67 813.78 559.1"/><polyline class="cls-3" points="812.06 558.81 812.43 560.21 811.67 560.6"/><path class="cls-4" d="M312.59,535.74a25.21,25.21,0,0,0,7-1.8s-9.2-3.15-11.91-6.75a14.88,14.88,0,0,0,4.87-.89s-9.74-2.25-14.61-6.3v.17c-4.87,4.05-14.61,6.3-14.61,6.3a14.76,14.76,0,0,0,4.87.9c-2.7,3.59-11.9,6.74-11.9,6.74a25.1,25.1,0,0,0,7,1.8c-2.7,4.05-13,6.3-13,6.3C275.8,544,278,544,278,544l20,5v-.17L314.76,544a43,43,0,0,0,10.82-2S315.3,539.79,312.59,535.74Z"/><rect class="cls-5" x="277.96" y="544.08" width="36.8" height="23.27"/><path class="cls-4" d="M296.63,554.36h0a5.14,5.14,0,0,1,5.14,5.14v7.85a0,0,0,0,1,0,0H291.49a0,0,0,0,1,0,0V559.5A5.14,5.14,0,0,1,296.63,554.36Z"/><line class="cls-5" x1="283.37" y1="535.91" x2="312.59" y2="535.74"/><line class="cls-5" x1="288.24" y1="527.37" x2="307.72" y2="527.19"/><path class="cls-6" d="M556.56,567a19.35,19.35,0,0,0,5.43-1.38s-7.1-2.43-9.18-5.21a11.41,11.41,0,0,0,3.75-.69s-7.51-1.74-11.27-4.86V555c-3.76,3.13-11.27,4.86-11.27,4.86a11.45,11.45,0,0,0,3.76.69c-2.09,2.78-9.19,5.21-9.19,5.21a19.35,19.35,0,0,0,5.43,1.38c-2.09,3.13-10,4.86-10,4.86a21.9,21.9,0,0,0,5.84,1.39l15.45,3.82V577l12.94-3.68a33.12,33.12,0,0,0,8.35-1.52S558.65,570.09,556.56,567Z"/><rect class="cls-7" x="529.84" y="573.4" width="28.39" height="17.95"/><path class="cls-6" d="M544.25,581.33h0a4,4,0,0,1,4,4v6.05a0,0,0,0,1,0,0h-7.93a0,0,0,0,1,0,0V585.3a4,4,0,0,1,4-4Z"/><line class="cls-7" x1="534.02" y1="567.09" x2="556.56" y2="566.96"/><line class="cls-7" x1="537.78" y1="560.5" x2="552.81" y2="560.37"/><path class="cls-8" d="M636.41,594.78c.1,1.29,1.81,2.78,2.68,3.62a12.17,12.17,0,0,0,3,1.93,7.66,7.66,0,0,1,1.46.73c-2.82.58-5.83-.15-8.68-.21.23,1.29,1.73,2.19,2.85,2.63.85.33,2.54.5,3.12,1.19-4.47,2.19-10.33,1.24-13.21-3.13a29.83,29.83,0,0,1-6.8.74,25.47,25.47,0,0,1-5.38-.23,7.82,7.82,0,0,1-2.82-.84,5.73,5.73,0,0,1,1.66-1.08,26.65,26.65,0,0,0,2.5-1.87,13.13,13.13,0,0,0,3.39-4.82c1.21-2.38,2.6-4.46,5.51-4.78a7.43,7.43,0,0,1,6.07,2.09C633.29,592.07,634.81,593.22,636.41,594.78Z"/><path class="cls-8" d="M619.79,589.75c-.14,1.17-1.43,2.23-2.21,3a5.73,5.73,0,0,1-3.14,1.94,8.46,8.46,0,0,0-3.7,1.19c.66,1.28,2.15,2.23,3.24,3.14a8.14,8.14,0,0,0,5.21,2.1c2.77.05,6.93-2.3,8-5a12,12,0,0,0,.36-5.48,4.89,4.89,0,0,0-1.81.27,7.54,7.54,0,0,1-2.72-.12C621.73,590.48,620.88,589.15,619.79,589.75Z"/><path class="cls-8" d="M619.87,592.3c-2.32-.15-5.1.1-7.27-.79a13,13,0,0,1-3.25-2,35.45,35.45,0,0,0,3.77-.33c1.86-.38,3.71-.85,5.59-1.22,2.34-.45,4.66-.53,6.89-1.44a5,5,0,0,1,2.67-.63c1.18.17,1.07,1.07.74,2.14-.57,1.85-1.93,4.14-4,4.23a37.68,37.68,0,0,1-3.81-.25C620.63,592,619.83,592.08,619.87,592.3Z"/><path class="cls-8" d="M622.26,588.51a8.43,8.43,0,0,1-4.89-1.39,7,7,0,0,1-2.37-3.18,16.82,16.82,0,0,1,3.31.47c.45.1,1.3.32,1.74,0,.86-.56-.32-2-.56-2.79a5.86,5.86,0,0,1,.31-4.1c1.37-3.17,6.67,3.24,8.14,4.31a5.3,5.3,0,0,1,1-2.55c3.05,2.57,3.8,6.57,3.7,10.29-.11,4-5.48,1.48-7.53.61A8.6,8.6,0,0,1,622.26,588.51Z"/><path class="cls-8" d="M629.74,591c.06-.84,0-1.57.58-2.21a5,5,0,0,1,2-1.24,4.62,4.62,0,0,1,3.45.23,22.15,22.15,0,0,0,8.61,2.7c0,1.42,2.47,4.88,0,5.48a6.8,6.8,0,0,1-5.5-1.23c-.42.8-.09,1.69-1,2-1.64.55-3.91-1.4-5-2.43a11.85,11.85,0,0,1-1.67-2.1A2,2,0,0,0,629.74,591Z"/><path class="cls-8" d="M625,595.18c-1.13-.28-2-1.84-2.54-2.74a8.28,8.28,0,0,1-1.31-2.58c-.5-2.5.5-5.22,1.23-7.57a9.91,9.91,0,0,0,4,1.94,11.73,11.73,0,0,1,5.49,3.21c1.31,1.46,2.17,3.85,1.51,5.73-.53,1.52-1.79,1.85-3.28,2.08C628.93,595.42,626,595.79,625,595.18Z"/><path class="cls-8" d="M629.43,587c.64-2.51,3.79-3.66,6-4.29.86-.25,3.88-.72,4.53.07.5.62,0,2.31-.38,2.92,1.14.56,2.58.44,3.83.58,0,3.17-2.91,3.43-5.5,4-1.83.4-6.84,2.53-8.15.09C629.26,589.37,629.51,588.27,629.43,587Z"/><path class="cls-8" d="M334.41,563.78c.1,1.29,1.81,2.78,2.68,3.62a12.17,12.17,0,0,0,3,1.93,7.66,7.66,0,0,1,1.46.73c-2.82.58-5.83-.15-8.68-.21.23,1.29,1.73,2.19,2.85,2.63.85.33,2.54.5,3.12,1.19-4.47,2.19-10.33,1.24-13.21-3.13a29.83,29.83,0,0,1-6.8.74,25.47,25.47,0,0,1-5.38-.23,7.82,7.82,0,0,1-2.82-.84,5.73,5.73,0,0,1,1.66-1.08,26.65,26.65,0,0,0,2.5-1.87,13.13,13.13,0,0,0,3.39-4.82c1.21-2.38,2.6-4.46,5.51-4.78a7.43,7.43,0,0,1,6.07,2.09C331.29,561.07,332.81,562.22,334.41,563.78Z"/><path class="cls-8" d="M317.79,558.75c-.14,1.17-1.43,2.23-2.21,3a5.73,5.73,0,0,1-3.14,1.94,8.46,8.46,0,0,0-3.7,1.19c.66,1.28,2.15,2.23,3.24,3.14a8.14,8.14,0,0,0,5.21,2.1c2.77.05,6.93-2.3,8-5a12,12,0,0,0,.36-5.48,4.89,4.89,0,0,0-1.81.27,7.54,7.54,0,0,1-2.72-.12C319.73,559.48,318.88,558.15,317.79,558.75Z"/><path class="cls-8" d="M317.87,561.3c-2.32-.15-5.1.1-7.27-.79a13,13,0,0,1-3.25-2,35.45,35.45,0,0,0,3.77-.33c1.86-.38,3.71-.85,5.59-1.22,2.34-.45,4.66-.53,6.89-1.44a5,5,0,0,1,2.67-.63c1.18.17,1.07,1.07.74,2.14-.57,1.85-1.93,4.14-4,4.23a37.68,37.68,0,0,1-3.81-.25C318.63,561,317.83,561.08,317.87,561.3Z"/><path class="cls-8" d="M320.26,557.51a8.43,8.43,0,0,1-4.89-1.39,7,7,0,0,1-2.37-3.18,16.82,16.82,0,0,1,3.31.47c.45.1,1.3.32,1.74,0,.86-.56-.32-2-.56-2.79a5.86,5.86,0,0,1,.31-4.1c1.37-3.17,6.67,3.24,8.14,4.31a5.3,5.3,0,0,1,1-2.55c3.05,2.57,3.8,6.57,3.7,10.29-.11,4-5.48,1.48-7.53.61A8.6,8.6,0,0,1,320.26,557.51Z"/><path class="cls-8" d="M327.74,560c.06-.84,0-1.57.58-2.21a5,5,0,0,1,2-1.24,4.62,4.62,0,0,1,3.45.23,22.15,22.15,0,0,0,8.61,2.7c0,1.42,2.47,4.88,0,5.48a6.8,6.8,0,0,1-5.5-1.23c-.42.8-.09,1.69-1,2-1.64.55-3.91-1.4-5-2.43a11.85,11.85,0,0,1-1.67-2.1A2,2,0,0,0,327.74,560Z"/><path class="cls-8" d="M323,564.18c-1.13-.28-2-1.84-2.54-2.74a8.28,8.28,0,0,1-1.31-2.58c-.5-2.5.5-5.22,1.23-7.57a9.91,9.91,0,0,0,4,1.94,11.73,11.73,0,0,1,5.49,3.21c1.31,1.46,2.17,3.85,1.51,5.73-.53,1.52-1.79,1.85-3.28,2.08C326.93,564.42,324,564.79,323,564.18Z"/><path class="cls-8" d="M327.43,556c.64-2.51,3.79-3.66,6-4.29.86-.25,3.88-.72,4.53.07.5.62,0,2.31-.38,2.92,1.14.56,2.58.44,3.83.58,0,3.17-2.91,3.43-5.5,4-1.83.4-6.84,2.53-8.15.09C327.26,558.37,327.51,557.27,327.43,556Z"/><path class="cls-8" d="M207.41,533.78c.1,1.29,1.81,2.78,2.68,3.62a12.17,12.17,0,0,0,3,1.93,7.66,7.66,0,0,1,1.46.73c-2.82.58-5.83-.15-8.68-.21.23,1.29,1.73,2.19,2.85,2.63.85.33,2.54.5,3.12,1.19-4.47,2.19-10.33,1.24-13.21-3.13a29.83,29.83,0,0,1-6.8.74,25.47,25.47,0,0,1-5.38-.23,7.82,7.82,0,0,1-2.82-.84,5.73,5.73,0,0,1,1.66-1.08,26.65,26.65,0,0,0,2.5-1.87,13.13,13.13,0,0,0,3.39-4.82c1.21-2.38,2.6-4.46,5.51-4.78a7.43,7.43,0,0,1,6.07,2.09C204.29,531.07,205.81,532.22,207.41,533.78Z"/><path class="cls-8" d="M190.79,528.75c-.14,1.17-1.43,2.23-2.21,3a5.73,5.73,0,0,1-3.14,1.94,8.46,8.46,0,0,0-3.7,1.19c.66,1.28,2.15,2.23,3.24,3.14a8.14,8.14,0,0,0,5.21,2.1c2.77.05,6.93-2.3,8-5a12,12,0,0,0,.36-5.48,4.89,4.89,0,0,0-1.81.27,7.54,7.54,0,0,1-2.72-.12C192.73,529.48,191.88,528.15,190.79,528.75Z"/><path class="cls-8" d="M190.87,531.3c-2.32-.15-5.1.1-7.27-.79a13,13,0,0,1-3.25-2,35.45,35.45,0,0,0,3.77-.33c1.86-.38,3.71-.85,5.59-1.22,2.34-.45,4.66-.53,6.89-1.44a5,5,0,0,1,2.67-.63c1.18.17,1.07,1.07.74,2.14-.57,1.85-1.93,4.14-4,4.23a37.68,37.68,0,0,1-3.81-.25C191.63,531,190.83,531.08,190.87,531.3Z"/><path class="cls-8" d="M193.26,527.51a8.43,8.43,0,0,1-4.89-1.39,7,7,0,0,1-2.37-3.18,16.82,16.82,0,0,1,3.31.47c.45.1,1.3.32,1.74,0,.86-.56-.32-2-.56-2.79a5.86,5.86,0,0,1,.31-4.1c1.37-3.17,6.67,3.24,8.14,4.31a5.3,5.3,0,0,1,1-2.55c3,2.57,3.8,6.57,3.7,10.29-.11,4-5.48,1.48-7.53.61A8.6,8.6,0,0,1,193.26,527.51Z"/><path class="cls-8" d="M200.74,530c.06-.84,0-1.57.58-2.21a5,5,0,0,1,2-1.24,4.62,4.62,0,0,1,3.45.23,22.15,22.15,0,0,0,8.61,2.7c0,1.42,2.47,4.88,0,5.48a6.8,6.8,0,0,1-5.5-1.23c-.42.8-.09,1.69-1,2-1.64.55-3.91-1.4-5-2.43a11.85,11.85,0,0,1-1.67-2.1A2,2,0,0,0,200.74,530Z"/><path class="cls-8" d="M196,534.18c-1.13-.28-2-1.84-2.54-2.74a8.28,8.28,0,0,1-1.31-2.58c-.5-2.5.5-5.22,1.23-7.57a9.91,9.91,0,0,0,4,1.94,11.73,11.73,0,0,1,5.49,3.21c1.31,1.46,2.17,3.85,1.51,5.73-.53,1.52-1.79,1.85-3.28,2.08C199.93,534.42,197,534.79,196,534.18Z"/><path class="cls-8" d="M200.43,526c.64-2.51,3.79-3.66,6-4.29.86-.25,3.88-.72,4.53.07.5.62,0,2.31-.38,2.92,1.14.56,2.58.44,3.83.58,0,3.17-2.91,3.43-5.5,4-1.83.4-6.84,2.53-8.15.09C200.26,528.37,200.51,527.27,200.43,526Z"/><path class="cls-9" d="M380.91,580a22,22,0,0,0-1.74-2.47,45,45,0,0,1-2.3-4.06,39.72,39.72,0,0,1-3.63-9,24.9,24.9,0,0,1-.44-6.84c.74-.16,1.46.9,1.91,1.34a33.42,33.42,0,0,1,5.52,6.8,34.74,34.74,0,0,1,4.08,10.12c.26,1.24,1.53,4.14-.21,4.68A3.84,3.84,0,0,1,380.91,580Z"/><path class="cls-9" d="M383,583c-.38-4-2.87-7.58-3.57-11.53a78.47,78.47,0,0,1-.79-12.64c.51,1.14.88,2.34,1.34,3.49.15-1.79-.09-3.62,0-5.42a17.19,17.19,0,0,1,.92-3.34c1.14,1.31,1.11,4.15,1.29,5.8.34,3.28.66,6.6.86,9.89.18,3,.95,6,.92,9,0,1.12-.36,2.16-.44,3.26C383.52,582,383.63,582.66,383,583Z"/><path class="cls-9" d="M383.31,585.42c0-3.12-.72-6.21-.88-9.32s-.47-6.42-.47-9.65a19.07,19.07,0,0,1,.92-6.52,9.17,9.17,0,0,1,1.24-2.91,7.4,7.4,0,0,1,.39,3,29.67,29.67,0,0,0,1.21,6.58,40.81,40.81,0,0,1,1.35,10.26c0,2,.55,5-.43,6.81A4.18,4.18,0,0,1,383.31,585.42Z"/><path class="cls-9" d="M381.66,583.39a42.82,42.82,0,0,0-.35-6.6,47.58,47.58,0,0,1,.39-16.66,83.89,83.89,0,0,1,2.37-8.45c.23-.74.7-3.36,1.64-3.61,1.32-.36,1.84,2.6,2,3.27a27.27,27.27,0,0,1,.48,6.63,39.32,39.32,0,0,1-1,9.11c-.44,1.79-.95,3.55-1.42,5.33-.35,1.35-.46,2.72-.74,4.08-.48,2.4-.8,4.86-1.06,7.29,0,.39.08,1.1-.28,1.34A1.62,1.62,0,0,1,381.66,583.39Z"/><path class="cls-9" d="M382.79,588.5v-6.44c0-3.22-.39-6.71.16-9.89.67-3.86,2.44-7,3.89-10.61.54-1.34,1.83-3.76,3.45-4a23.2,23.2,0,0,1,.09,3.23c-.18,1.06-.57,2.11-.85,3.15a20.58,20.58,0,0,1-.74,3.28c.12-.73.89-1.41,1.36-2,.62-.71,1.14-1.46,1.72-2.2a5.61,5.61,0,0,1,2.63-2c.23,4.49-2.92,8.17-4.54,12.14-1,2.39-1.61,4.89-2.63,7.28a54.87,54.87,0,0,1-2.34,5.11A7.81,7.81,0,0,1,382.79,588.5Z"/><path class="cls-9" d="M376.85,579.93c-.56-1.75-2.47-2.73-3.54-4.13-.9-1.18-1.81-2.42-2.69-3.6a11.1,11.1,0,0,1,5.33.57c2.26.9,4.95,2.12,6.46,4.08,1.13,1.46,2.78,4,2.1,6-.48,1.4-3.54.91-4.58.44a7.58,7.58,0,0,1-2.26-1.89C377.4,581.05,377.26,580.59,376.85,579.93Z"/><path class="cls-9" d="M380.53,580.76a31.72,31.72,0,0,0-.07-3.78c-.36-2.91-1.8-5.43-2.86-8.11a33.2,33.2,0,0,1-2.54-10.36c-.16-2.58-.46-5.21-.46-7.8a5.43,5.43,0,0,1,.44-2.4c1.31.09,2,2.45,2.47,3.44a43.74,43.74,0,0,1,2.38,7.57c.82,3.14,1.94,6.12,3,9.19a34.73,34.73,0,0,1,1.66,5.79c.19,1.24.37,2.5.52,3.74,0,.33.26,1.27.08,1.59s-.86.45-1.21.53C382.84,580.42,381.54,580.29,380.53,580.76Z"/><path class="cls-9" d="M594.12,604a20.78,20.78,0,0,0-1.74-2.47c-.84-1.31-1.59-2.67-2.3-4.06a39.72,39.72,0,0,1-3.63-9,25.29,25.29,0,0,1-.43-6.84c.73-.16,1.45.9,1.9,1.34a33.42,33.42,0,0,1,5.52,6.8,34.47,34.47,0,0,1,4.08,10.12c.27,1.24,1.53,4.14-.21,4.68A3.85,3.85,0,0,1,594.12,604Z"/><path class="cls-9" d="M596.23,607c-.39-4-2.88-7.58-3.58-11.53a79.63,79.63,0,0,1-.79-12.64c.51,1.14.88,2.34,1.34,3.49.15-1.79-.08-3.62,0-5.42a16.51,16.51,0,0,1,.92-3.34c1.14,1.31,1.11,4.15,1.28,5.8.34,3.28.67,6.6.86,9.89.18,3,1,6,.92,9,0,1.12-.35,2.16-.43,3.26C596.73,606,596.84,606.66,596.23,607Z"/><path class="cls-9" d="M596.53,609.42c0-3.12-.72-6.21-.89-9.32s-.47-6.42-.47-9.65a18.84,18.84,0,0,1,.93-6.52,9,9,0,0,1,1.24-2.91,7.77,7.77,0,0,1,.39,3,29.66,29.66,0,0,0,1.2,6.58,39.92,39.92,0,0,1,1.35,10.26c0,2,.56,5-.43,6.81A4.15,4.15,0,0,1,596.53,609.42Z"/><path class="cls-9" d="M594.87,607.39a44.1,44.1,0,0,0-.34-6.6,47.57,47.57,0,0,1,.38-16.66,86.61,86.61,0,0,1,2.37-8.45c.23-.74.7-3.36,1.65-3.61,1.31-.36,1.84,2.6,2,3.27a26.78,26.78,0,0,1,.48,6.63,39.86,39.86,0,0,1-1,9.11c-.44,1.79-1,3.55-1.42,5.33-.36,1.35-.46,2.72-.74,4.08-.49,2.4-.81,4.86-1.06,7.29,0,.39.07,1.1-.29,1.34A1.62,1.62,0,0,1,594.87,607.39Z"/><path class="cls-9" d="M596,612.5v-6.44c0-3.22-.38-6.71.16-9.89.67-3.86,2.45-7,3.89-10.61.55-1.34,1.84-3.76,3.45-4a20.48,20.48,0,0,1,.09,3.23,31.87,31.87,0,0,1-.85,3.15,21.72,21.72,0,0,1-.73,3.28c.11-.73.88-1.41,1.35-2,.62-.71,1.14-1.46,1.73-2.2a5.54,5.54,0,0,1,2.62-2c.24,4.49-2.92,8.17-4.53,12.14-1,2.39-1.61,4.89-2.63,7.28-.75,1.73-1.44,3.47-2.34,5.11A7.86,7.86,0,0,1,596,612.5Z"/><path class="cls-9" d="M590.06,603.93c-.55-1.75-2.47-2.73-3.53-4.13-.91-1.18-1.82-2.42-2.7-3.6a11.1,11.1,0,0,1,5.33.57c2.26.9,5,2.12,6.47,4.08,1.13,1.46,2.77,4,2.09,6-.47,1.4-3.54.91-4.57.44a7.46,7.46,0,0,1-2.26-1.89C590.62,605.05,590.48,604.59,590.06,603.93Z"/><path class="cls-9" d="M593.75,604.76a29.74,29.74,0,0,0-.08-3.78c-.35-2.91-1.79-5.43-2.86-8.11a32.91,32.91,0,0,1-2.53-10.36c-.17-2.58-.47-5.21-.47-7.8a5.3,5.3,0,0,1,.45-2.4c1.31.09,2,2.45,2.47,3.44a44.59,44.59,0,0,1,2.37,7.57c.83,3.14,1.94,6.12,3,9.19a33.8,33.8,0,0,1,1.66,5.79c.19,1.24.37,2.5.52,3.74,0,.33.26,1.27.08,1.59s-.86.45-1.2.53C596.05,604.42,594.76,604.29,593.75,604.76Z"/><path class="cls-9" d="M1075.12,542a20.78,20.78,0,0,0-1.74-2.47c-.84-1.31-1.59-2.67-2.3-4.06a39.72,39.72,0,0,1-3.63-9,25.29,25.29,0,0,1-.43-6.84c.73-.16,1.45.9,1.9,1.34a33.42,33.42,0,0,1,5.52,6.8,34.47,34.47,0,0,1,4.08,10.12c.27,1.24,1.53,4.14-.21,4.68A3.85,3.85,0,0,1,1075.12,542Z"/><path class="cls-9" d="M1077.23,545c-.39-4-2.88-7.58-3.58-11.53a79.63,79.63,0,0,1-.79-12.64c.51,1.14.88,2.34,1.34,3.49.15-1.79-.08-3.62,0-5.42a16.51,16.51,0,0,1,.92-3.34c1.14,1.31,1.11,4.15,1.28,5.8.34,3.28.67,6.6.86,9.89.18,3,1,6,.92,9,0,1.12-.35,2.16-.43,3.26C1077.73,544,1077.84,544.66,1077.23,545Z"/><path class="cls-9" d="M1077.53,547.42c0-3.12-.72-6.21-.89-9.32s-.47-6.42-.47-9.65a18.84,18.84,0,0,1,.93-6.52,9,9,0,0,1,1.24-2.91,7.77,7.77,0,0,1,.39,3,29.66,29.66,0,0,0,1.2,6.58,39.92,39.92,0,0,1,1.35,10.26c0,2,.56,5-.43,6.81A4.15,4.15,0,0,1,1077.53,547.42Z"/><path class="cls-9" d="M1075.87,545.39a44.1,44.1,0,0,0-.34-6.6,47.57,47.57,0,0,1,.38-16.66,86.61,86.61,0,0,1,2.37-8.45c.23-.74.7-3.36,1.65-3.61,1.31-.36,1.84,2.6,2,3.27a26.78,26.78,0,0,1,.48,6.63,39.86,39.86,0,0,1-1,9.11c-.44,1.79-1,3.55-1.42,5.33-.36,1.35-.46,2.72-.74,4.08-.49,2.4-.81,4.86-1.06,7.29,0,.39.07,1.1-.29,1.34A1.62,1.62,0,0,1,1075.87,545.39Z"/><path class="cls-9" d="M1077,550.5v-6.44c0-3.22-.38-6.71.16-9.89.67-3.86,2.45-7,3.89-10.61.55-1.34,1.84-3.76,3.45-4a20.48,20.48,0,0,1,.09,3.23,31.87,31.87,0,0,1-.85,3.15,21.72,21.72,0,0,1-.73,3.28c.11-.73.88-1.41,1.35-2,.62-.71,1.14-1.46,1.73-2.2a5.54,5.54,0,0,1,2.62-2c.24,4.49-2.92,8.17-4.53,12.14-1,2.39-1.61,4.89-2.63,7.28-.75,1.73-1.44,3.47-2.34,5.11A7.86,7.86,0,0,1,1077,550.5Z"/><path class="cls-9" d="M1071.06,541.93c-.55-1.75-2.47-2.73-3.53-4.13-.91-1.18-1.82-2.42-2.7-3.6a11.1,11.1,0,0,1,5.33.57c2.26.9,4.95,2.12,6.47,4.08,1.13,1.46,2.77,4,2.09,6-.47,1.4-3.54.91-4.57.44a7.46,7.46,0,0,1-2.26-1.89C1071.62,543.05,1071.48,542.59,1071.06,541.93Z"/><path class="cls-9" d="M1074.75,542.76a29.74,29.74,0,0,0-.08-3.78c-.35-2.91-1.79-5.43-2.86-8.11a32.91,32.91,0,0,1-2.53-10.36c-.17-2.58-.47-5.21-.47-7.8a5.3,5.3,0,0,1,.45-2.4c1.31.09,2,2.45,2.47,3.44a44.59,44.59,0,0,1,2.37,7.57c.83,3.14,1.94,6.12,3,9.19a33.8,33.8,0,0,1,1.66,5.79c.19,1.24.37,2.5.52,3.74,0,.33.26,1.27.08,1.59s-.86.45-1.2.53C1077.05,542.42,1075.76,542.29,1074.75,542.76Z"/></g><g id="bg"><polygon class="cls-10" points="1366.5 505.5 1009.5 545.5 927.83 579.5 669.44 609.29 489 575.68 363.5 577.5 165.5 532.5 64.05 465.65 0.5 447.5 -0.5 768.5 1366.5 768.5 1366.5 505.5"/></g><g id="fg_stuff" data-name="fg stuff"><path class="cls-11" d="M192,452.5c0-3-3-10-6-10s-5-1-6-3,0-4,0-5,2-4,0-5c0,0,1-7.69-7.5-8H172c-8.46.3-7.5,8-7.5,8-2,1,0,4,0,5s1,3,0,5-3,3-6,3-6,7-6,10,4,20,3,25,4,2,5,4,2,36,2,36H182s1-34,2-36,6,.9,5-4S192,455.5,192,452.5Z"/><path class="cls-12" d="M171.73,486c0,6.66-.3,13.39,0,20,.12,2.67-.17,5.74.13,8.36"/><path class="cls-12" d="M160.63,472.91c0-4.11.2-8.27,0-12.38-.12-2.52-1-4.94-1.27-7.45"/><path class="cls-12" d="M183,471.22V460.45c0-2.18-.45-4.24-.42-6.38"/><path class="cls-12" d="M171.45,434.53c0-2.64,0-4.38-2.81-4.92"/><path class="cls-12" d="M174.83,431a3.87,3.87,0,0,0,1.68-.42"/><polyline class="cls-13" points="161.5 442 161.5 445 165.5 446 165.5 448 166.5 450"/><polyline class="cls-13" points="167.64 447.44 166.5 447 165.5 446"/><polyline class="cls-13" points="162.5 445.5 163.15 447.94 161.83 448.61"/><path class="cls-11" d="M352,603.5c0-3-3-10-6-10s-5-1-6-3,0-4,0-5,2-4,0-5c0,0,1-7.69-7.5-8H332c-8.46.3-7.5,8-7.5,8-2,1,0,4,0,5s1,3,0,5-3,3-6,3-6,7-6,10,4,20,3,25,4,2,5,4,2,36,2,36H342s1-34,2-36,6,.9,5-4S352,606.5,352,603.5Z"/><path class="cls-12" d="M331.73,637c0,6.66-.3,13.39,0,20,.12,2.67-.17,5.74.13,8.36"/><path class="cls-12" d="M320.63,623.91c0-4.11.2-8.27,0-12.38-.12-2.52-1-4.94-1.27-7.45"/><path class="cls-12" d="M343,622.22V611.45c0-2.18-.45-4.24-.42-6.38"/><path class="cls-12" d="M331.45,585.53c0-2.64,0-4.38-2.81-4.92"/><path class="cls-12" d="M334.83,582a3.87,3.87,0,0,0,1.68-.42"/><polyline class="cls-13" points="321.5 593 321.5 596 325.5 597 325.5 599 326.5 601"/><polyline class="cls-13" points="327.64 598.44 326.5 598 325.5 597"/><polyline class="cls-13" points="322.5 596.5 323.15 598.94 321.83 599.61"/><path class="cls-11" d="M1058,454.5c0-3-3-10-6-10s-5-1-6-3,0-4,0-5,2-4,0-5c0,0,1-7.69-7.5-8h-.5c-8.46.3-7.5,8-7.5,8-2,1,0,4,0,5s1,3,0,5-3,3-6,3-6,7-6,10,4,20,3,25,4,2,5,4,2,36,2,36H1048s1-34,2-36,6,.9,5-4S1058,457.5,1058,454.5Z"/><path class="cls-12" d="M1037.73,488c0,6.66-.3,13.39,0,20,.12,2.67-.17,5.74.13,8.36"/><path class="cls-12" d="M1026.63,474.91c0-4.11.2-8.27,0-12.38-.12-2.52-1-4.94-1.27-7.45"/><path class="cls-12" d="M1049,473.22V462.45c0-2.18-.45-4.24-.42-6.38"/><path class="cls-12" d="M1037.45,436.53c0-2.64,0-4.38-2.81-4.92"/><path class="cls-12" d="M1040.83,433a3.87,3.87,0,0,0,1.68-.42"/><polyline class="cls-13" points="1027.5 444 1027.5 447 1031.5 448 1031.5 450 1032.5 452"/><polyline class="cls-13" points="1033.64 449.44 1032.5 449 1031.5 448"/><polyline class="cls-13" points="1028.5 447.5 1029.15 449.94 1027.83 450.61"/><path class="cls-14" d="M479.14,668.29c.58,3.93,6.07,8.13,8.89,10.53s6.27,3.83,9.56,5.28c1.43.63,3.47,1,4.59,1.93-8.48,2.32-17.79.71-26.47,1.09,1,3.88,5.68,6.32,9.18,7.43,2.66.84,7.84,1,9.76,3-13.2,7.56-31.23,5.83-40.87-6.92-6.68,2.22-13.6,3-20.6,3.61-5.46.5-10.95,1-16.41.37-2.46-.29-6.67-.65-8.79-2,1.06-1.59,3.27-2.5,4.87-3.64a75.52,75.52,0,0,0,7.23-6.19c4.91-4.53,6.81-9.42,9.37-15.35,3.22-7.49,7.05-14.09,15.86-15.66,7.35-1.3,13.13.74,18.91,5.17C469.1,660.68,474,663.88,479.14,668.29Z"/><path class="cls-14" d="M427.51,656.26c-.21,3.61-3.93,7.08-6.14,9.65-2.59,3-5.22,5.61-9.18,6.52-4.46,1-7.48,1.71-11,4.37,2.26,3.78,7,6.39,10.48,8.93,4.9,3.57,10.16,5.67,16.3,5.37,8.45-.41,20.67-8.38,23.32-16.79,1.68-5.3.93-11.45,0-16.76-2-.31-3.57.76-5.47,1.16a23.22,23.22,0,0,1-8.31.19C433.56,658.12,430.71,654.23,427.51,656.26Z"/><path class="cls-14" d="M428.26,664c-7.1,0-15.53,1.3-22.3-1a39,39,0,0,1-10.31-5.29c3.05-.51,7.87-.75,11.43-1.73,5.61-1.55,11.14-3.36,16.79-4.83,7.06-1.85,14.1-2.54,20.71-5.77,2.57-1.26,5-2.68,8-2.44,3.66.3,3.48,3,2.69,6.38-1.37,5.75-5,13-11.47,13.69-3.78.4-7.84,0-11.65,0C430.52,663,428.09,663.35,428.26,664Z"/><path class="cls-14" d="M434.78,652c-5.47,0-10.42-.16-15.16-3.27-2.61-1.72-7.1-6-7.87-9.22a51.94,51.94,0,0,1,10.19.78c1.4.21,4,.72,5.32-.25,2.49-1.89-1.38-6-2.26-8.4a18.12,18.12,0,0,1,.11-12.55c3.57-9.93,21,8.55,25.67,11.52.35-2.23.85-6.38,2.53-8,9.79,7.24,12.88,19.29,13.3,30.64.46,12.22-16.41,5.59-22.84,3.34C440.6,655.5,437.45,654.3,434.78,652Z"/><path class="cls-14" d="M458.09,658c0-2.58-.42-4.79,1.31-6.85a15.3,15.3,0,0,1,6-4.19c3.27-1.13,7.39-1.56,10.54,0,8.26,4.12,17.42,6,26.77,6.55.29,4.32,8.49,14.36,1.05,16.7-5.91,1.85-12,.37-17-2.67-1.11,2.52,0,5.17-2.73,6.3-4.89,2-12.22-3.5-15.6-6.42a35.93,35.93,0,0,1-5.52-6.08C461.81,659.89,460.86,658.31,458.09,658Z"/><path class="cls-14" d="M444.31,671.8c-3.5-.63-6.48-5.22-8.29-7.86-1.69-2.46-3.72-4.64-4.51-7.59-2-7.54.51-16,2.26-23.31,3,2.75,8.67,4.22,12.54,5.11,6.38,1.46,12.68,4.07,17.39,8.71,4.25,4.18,7.36,11.3,5.72,17.16-1.32,4.74-5.09,6-9.57,7C456.48,671.75,447.56,673.46,444.31,671.8Z"/><path class="cls-14" d="M456.34,646c1.45-7.78,10.84-11.91,17.53-14.29,2.58-.92,11.67-3,13.81-.66,1.64,1.77.4,7-.56,9,3.58,1.49,7.93.84,11.79,1,.52,9.66-8.2,11-16,13.27-5.48,1.57-20.34,9.05-24.81,1.89C456.28,653.22,456.84,649.82,456.34,646Z"/><path class="cls-14" d="M999.51,502.74c2.06,3.39,8.75,5.13,12.28,6.25s7.26,1.09,10.86,1.15c1.57,0,3.6-.41,5,0-6.91,5.43-16.12,7.56-24,11.28,2.38,3.21,7.69,3.62,11.34,3.28,2.79-.26,7.63-2.08,10.17-1-9.23,12.09-26.52,17.5-40.35,9.49-5.3,4.64-11.38,8-17.58,11.33-4.84,2.58-9.71,5.17-15,6.71-2.37.69-6.39,2-8.87,1.56.35-1.87,2-3.57,3.07-5.24a75.22,75.22,0,0,0,4.26-8.52c2.76-6.08,2.62-11.33,2.67-17.78.07-8.15,1-15.72,8.54-20.59,6.26-4,12.38-4.42,19.43-2.58C987.31,499.62,993.05,500.67,999.51,502.74Z"/><path class="cls-14" d="M947.26,511.7c1.21,3.41-.87,8.05-1.91,11.28-1.22,3.78-2.63,7.19-5.93,9.57-3.71,2.68-6.23,4.48-8.47,8.31,3.55,2.6,8.92,3.17,13.13,4.16,5.9,1.38,11.57,1.28,17.11-1.38,7.62-3.66,15.78-15.75,15-24.52-.52-5.54-3.59-10.92-6.49-15.46-2,.49-3,2.08-4.59,3.19a22.92,22.92,0,0,1-7.58,3.4C953.56,511.06,949.42,508.59,947.26,511.7Z"/><path class="cls-14" d="M951,518.57c-6.54,2.76-13.81,7.23-20.93,7.75a39.16,39.16,0,0,1-11.56-.87c2.62-1.66,7-3.76,9.86-6,4.56-3.6,9-7.42,13.6-11,5.78-4.44,12-7.81,16.84-13.36,1.88-2.16,3.6-4.43,6.43-5.36,3.49-1.14,4.39,1.46,5,4.84,1,5.83.4,13.94-5.25,17.07-3.33,1.84-7.23,3-10.75,4.5C952.66,516.77,950.55,518,951,518.57Z"/><path class="cls-14" d="M952.31,505c-5,2.13-9.67,3.9-15.24,2.87-3.08-.57-8.89-2.79-10.84-5.44a52.84,52.84,0,0,1,9.7-3.23c1.37-.36,4-.91,4.8-2.3,1.57-2.71-3.61-5-5.34-6.87a18,18,0,0,1-4.77-11.61c-.57-10.53,22.67-.26,28.13.66-.55-2.19-1.7-6.21-.77-8.34,11.83,2.87,19.36,12.77,24.15,23.07,5.17,11.08-13,11.52-19.74,11.95C959,505.92,955.66,506,952.31,505Z"/><path class="cls-14" d="M976.12,501.44c-1-2.37-2.25-4.25-1.45-6.81a15.26,15.26,0,0,1,3.87-6.18c2.57-2.31,6.2-4.31,9.71-4.08,9.21.59,18.4-1.21,27.21-4.36,1.95,3.86,13.41,9.94,7.46,15-4.73,4-10.94,5-16.7,4.14,0,2.75,2.06,4.74-.06,6.87-3.74,3.74-12.62,1.52-16.88.13a35.57,35.57,0,0,1-7.44-3.46C980.28,501.73,978.8,500.64,976.12,501.44Z"/><path class="cls-14" d="M968.77,519.5c-3.46.77-8-2.3-10.69-4-2.51-1.61-5.23-2.83-7.1-5.24-4.77-6.17-5.74-15-7-22.36,3.85,1.36,9.62.52,13.53-.16,6.45-1.13,13.27-1.17,19.41,1.27,5.54,2.21,11.18,7.56,11.94,13.6.62,4.88-2.38,7.48-6.12,10.14C980,514.72,972.41,519.76,968.77,519.5Z"/><path class="cls-14" d="M969.83,491c-1.67-7.74,5.37-15.18,10.62-20,2-1.84,9.61-7.25,12.46-6,2.21,1,3.11,6.31,3,8.46,3.87,0,7.63-2.3,11.25-3.64,4.24,8.69-3.26,13.35-9.58,18.43-4.44,3.58-15.23,16.24-22.13,11.37C972.6,497.73,971.79,494.38,969.83,491Z"/><path class="cls-14" d="M1345.51,189.74c2.06,3.39,8.75,5.13,12.28,6.25s7.26,1.09,10.86,1.15c1.57,0,3.6-.41,5,0-6.91,5.43-16.12,7.56-24,11.28,2.38,3.21,7.69,3.62,11.34,3.28,2.79-.26,7.63-2.08,10.17-1-9.23,12.09-26.52,17.5-40.35,9.49-5.3,4.64-11.38,8-17.58,11.33-4.84,2.58-9.71,5.17-15,6.71-2.37.69-6.39,2-8.87,1.56.35-1.87,2-3.57,3.07-5.24a75.22,75.22,0,0,0,4.26-8.52c2.76-6.08,2.62-11.33,2.67-17.78.07-8.15,1-15.72,8.54-20.59,6.26-4.05,12.38-4.42,19.43-2.58C1333.31,186.62,1339.05,187.67,1345.51,189.74Z"/><path class="cls-14" d="M1293.26,198.7c1.21,3.41-.87,8.05-1.91,11.28-1.22,3.78-2.63,7.19-5.93,9.57-3.71,2.68-6.23,4.48-8.47,8.31,3.55,2.6,8.92,3.17,13.13,4.16,5.9,1.38,11.57,1.28,17.11-1.38,7.62-3.66,15.78-15.75,15-24.52-.52-5.54-3.59-10.92-6.49-15.46-2,.49-3,2.08-4.59,3.19a22.92,22.92,0,0,1-7.58,3.4C1299.56,198.06,1295.42,195.59,1293.26,198.7Z"/><path class="cls-14" d="M1297,205.57c-6.54,2.76-13.81,7.23-20.93,7.75a39.16,39.16,0,0,1-11.56-.87c2.62-1.66,7-3.76,9.86-6,4.56-3.6,9-7.42,13.6-11,5.78-4.44,12-7.81,16.84-13.36,1.88-2.16,3.6-4.43,6.43-5.36,3.49-1.14,4.39,1.46,5,4.84,1,5.83.4,13.94-5.25,17.07-3.33,1.84-7.23,3-10.75,4.5C1298.66,203.77,1296.55,205,1297,205.57Z"/><path class="cls-14" d="M1298.31,192c-5,2.13-9.67,3.9-15.24,2.87-3.08-.57-8.89-2.79-10.84-5.44a52.84,52.84,0,0,1,9.7-3.23c1.37-.36,4-.91,4.8-2.3,1.57-2.71-3.61-5-5.34-6.87a18,18,0,0,1-4.77-11.61c-.57-10.53,22.67-.26,28.13.66-.55-2.19-1.7-6.21-.77-8.34,11.83,2.87,19.36,12.77,24.15,23.07,5.17,11.08-13,11.52-19.74,12C1305,192.92,1301.66,193,1298.31,192Z"/><path class="cls-14" d="M1322.12,188.44c-1-2.37-2.25-4.25-1.45-6.81a15.26,15.26,0,0,1,3.87-6.18c2.57-2.31,6.2-4.31,9.71-4.08,9.21.59,18.4-1.21,27.21-4.36,2,3.86,13.41,9.94,7.46,15-4.73,4-10.94,5-16.7,4.14,0,2.75,2.06,4.74-.06,6.87-3.74,3.74-12.62,1.52-16.88.13a35.57,35.57,0,0,1-7.44-3.46C1326.28,188.73,1324.8,187.64,1322.12,188.44Z"/><path class="cls-14" d="M1314.77,206.5c-3.46.77-8-2.3-10.69-4-2.51-1.61-5.23-2.83-7.1-5.24-4.77-6.17-5.74-14.95-7-22.36,3.85,1.36,9.62.52,13.53-.16,6.45-1.13,13.27-1.17,19.41,1.27,5.54,2.21,11.18,7.56,11.94,13.6.62,4.88-2.38,7.48-6.12,10.14C1326,201.72,1318.41,206.76,1314.77,206.5Z"/><path class="cls-14" d="M1315.83,178c-1.67-7.74,5.37-15.18,10.62-20,2-1.84,9.61-7.25,12.46-6,2.21,1,3.11,6.31,3,8.46,3.87,0,7.63-2.3,11.25-3.64,4.24,8.69-3.26,13.35-9.58,18.43-4.44,3.58-15.23,16.24-22.13,11.37C1318.6,184.73,1317.79,181.38,1315.83,178Z"/><path class="cls-15" d="M789.9,655.67c-1.19-2.65-3.62-4.92-5.2-7.37-2.51-3.89-4.74-8-6.86-12.1-4.36-8.49-8.69-17.54-10.82-26.9a73.9,73.9,0,0,1-1.3-20.41c2.19-.47,4.34,2.7,5.69,4a99.16,99.16,0,0,1,16.45,20.29A102.93,102.93,0,0,1,800,643.39c.8,3.68,4.56,12.35-.63,14A11.44,11.44,0,0,1,789.9,655.67Z"/><path class="cls-15" d="M796.17,664.63c-1.15-11.94-8.56-22.62-10.66-34.4-2.23-12.46-2.15-25.11-2.35-37.72,1.52,3.4,2.61,7,4,10.42.44-5.34-.25-10.82.05-16.19.2-3.61,1.85-6.59,2.75-10,3.39,3.94,3.3,12.4,3.82,17.32,1,9.77,2,19.68,2.58,29.49.53,8.93,2.84,18,2.74,26.91,0,3.34-1.06,6.43-1.3,9.71C797.68,661.72,798,663.59,796.17,664.63Z"/><path class="cls-15" d="M797.07,671.81c0-9.3-2.15-18.53-2.65-27.82-.51-9.6-1.39-19.13-1.39-28.77,0-7.07.52-12.83,2.76-19.47.94-2.79,1.85-6.54,3.7-8.67,1.27,2.79,1.06,5.81,1.17,8.84.23,6.63,1.85,13.18,3.58,19.63a120.19,120.19,0,0,1,4,30.6c0,6.06,1.65,14.81-1.29,20.33C805.33,669.6,801,671.51,797.07,671.81Z"/><path class="cls-15" d="M792.14,665.75a129.35,129.35,0,0,0-1-19.68,142.22,142.22,0,0,1,1.14-49.72c1.8-8.73,4.43-16.77,7.07-25.21.69-2.2,2.1-10,4.91-10.77,3.93-1.06,5.5,7.77,6,9.76,1.58,6.46,1.49,13.15,1.43,19.79a117.65,117.65,0,0,1-3,27.17c-1.31,5.33-2.85,10.61-4.24,15.92-1.06,4-1.38,8.11-2.2,12.17-1.46,7.15-2.41,14.49-3.16,21.74-.12,1.15.21,3.29-.86,4S792.24,671.07,792.14,665.75Z"/><path class="cls-15" d="M795.5,681V661.79c0-9.61-1.15-20,.49-29.51,2-11.53,7.29-21,11.61-31.67,1.62-4,5.47-11.2,10.29-12,0,3.25.79,6.36.26,9.62a94.54,94.54,0,0,1-2.53,9.41c-.86,3.16-.84,6.87-2.2,9.79.35-2.18,2.64-4.2,4.05-5.82,1.85-2.13,3.39-4.37,5.15-6.56,1.88-2.35,4.78-5.43,7.82-6.13.71,13.4-8.7,24.38-13.53,36.24-2.91,7.14-4.8,14.58-7.85,21.7-2.21,5.17-4.28,10.37-7,15.26C800.14,675.7,800.17,676.72,795.5,681Z"/><path class="cls-15" d="M777.79,655.44c-1.66-5.22-7.39-8.15-10.56-12.32-2.69-3.54-5.42-7.23-8-10.74a33,33,0,0,1,15.9,1.7c6.75,2.68,14.77,6.33,19.29,12.16,3.38,4.35,8.28,11.83,6.26,17.82-1.41,4.16-10.57,2.72-13.66,1.31a22.6,22.6,0,0,1-6.74-5.63C779.44,658.77,779,657.39,777.79,655.44Z"/><path class="cls-15" d="M788.77,657.91a92.39,92.39,0,0,0-.21-11.29c-1.07-8.68-5.36-16.2-8.55-24.2-4-10.17-6.85-19.94-7.55-30.88-.49-7.73-1.39-15.57-1.4-23.3a16,16,0,0,1,1.34-7.16c3.9.27,6,7.31,7.36,10.28,3.33,7.14,5.12,15,7.1,22.59,2.45,9.37,5.78,18.24,8.86,27.41,2,5.81,4,11.21,4.94,17.29.57,3.7,1.1,7.44,1.56,11.15.13,1,.78,3.79.25,4.75s-2.58,1.33-3.61,1.58C795.66,656.91,791.79,656.52,788.77,657.91Z"/><path class="cls-15" d="M212.17,562.69c0-2.9-1.32-6-1.78-8.84-.72-4.57-1.11-9.21-1.38-13.84-.56-9.53-.87-19.55,1-29A74.14,74.14,0,0,1,217,491.84c2.2.45,2.88,4.22,3.58,6A99.26,99.26,0,0,1,227.46,523a103,103,0,0,1-1.05,32.54c-.76,3.69-.81,13.13-6.22,12.51A11.39,11.39,0,0,1,212.17,562.69Z"/><path class="cls-15" d="M214.29,573.43c3.77-11.39,1.3-24.16,4.14-35.78,3-12.3,8.17-23.84,13.08-35.46,0,3.73-.43,7.45-.55,11.15,2.56-4.72,4.13-10,6.58-14.79,1.64-3.22,4.36-5.28,6.54-8,1.51,5-2,12.67-3.5,17.38-3,9.36-6.13,18.81-9.55,28-3.11,8.38-4.67,17.62-8.36,25.72-1.39,3-3.57,5.46-5.11,8.37C216.85,571.38,216.39,573.21,214.29,573.43Z"/><path class="cls-15" d="M212.21,580.35c3.74-8.51,5.52-17.81,8.82-26.51,3.41-9,6.45-18.07,10.35-26.89,2.85-6.46,5.64-11.52,10.38-16.69,2-2.18,4.34-5.24,6.88-6.44,0,3.07-1.37,5.74-2.5,8.56-2.46,6.16-3.62,12.81-4.64,19.41a120.64,120.64,0,0,1-8.67,29.62c-2.45,5.54-4.47,14.21-9.39,18.08C220.67,581.67,216,581.68,212.21,580.35Z"/><path class="cls-15" d="M210.15,572.82a129.74,129.74,0,0,0,7-18.42,142.09,142.09,0,0,1,21.12-45c5.17-7.27,10.83-13.55,16.65-20.21,1.52-1.73,6-8.31,8.84-7.87,4,.61,1.89,9.33,1.53,11.34-1.17,6.55-3.95,12.64-6.69,18.69A117.65,117.65,0,0,1,244.93,535c-3.35,4.34-6.89,8.55-10.3,12.84-2.59,3.25-4.54,6.87-6.93,10.25-4.23,6-8.06,12.28-11.67,18.61-.58,1-1.14,3.1-2.41,3.31S208.09,577.73,210.15,572.82Z"/><path class="cls-15" d="M207.06,588.13l7.76-17.58c3.88-8.79,7-18.77,12.37-26.79,6.47-9.75,15.15-16.28,23.41-24.28,3.09-3,9.53-8.05,14.24-6.79-1.35,3-1.85,6.14-3.65,8.92a92.57,92.57,0,0,1-6.12,7.58c-2.06,2.54-3.53,5.94-6,8.06,1.21-1.85,4.11-2.77,6.06-3.68,2.55-1.2,4.87-2.62,7.36-3.92,2.67-1.39,6.56-3,9.63-2.45-4.77,12.54-17.81,18.78-27,27.69-5.54,5.35-10.28,11.4-15.94,16.68-4.11,3.83-8.1,7.75-12.54,11.14C213.45,585.15,213.07,586.1,207.06,588.13Z"/><path class="cls-15" d="M201.18,557.59c.59-5.45-3.46-10.44-4.67-15.53-1-4.33-2-8.8-3-13.07a32.83,32.83,0,0,1,13.87,8c5.08,5.17,11,11.75,12.73,18.91,1.33,5.34,2.8,14.16-1.47,18.82-3,3.24-10.77-1.77-13-4.31a22.59,22.59,0,0,1-3.9-7.87C201.35,561.3,201.52,559.87,201.18,557.59Z"/><path class="cls-15" d="M210.24,564.29a92.86,92.86,0,0,0,4.36-10.42c2.53-8.37,1.64-17,2-25.58.4-10.95,1.78-21,5.56-31.31,2.67-7.26,5-14.8,8.13-21.88.92-2.07,2.3-4.6,4.11-6,3.47,1.82,2.53,9.1,2.59,12.37.16,7.87-1.39,15.81-2.63,23.53-1.54,9.56-2.08,19-3,28.65-.56,6.12-.87,11.88-2.47,17.82-1,3.61-2,7.25-3.07,10.83-.29,1-.82,3.78-1.7,4.44s-2.9.18-3.93,0C216.94,566.15,213.56,564.23,210.24,564.29Z"/><path class="cls-15" d="M60.17,306.69c0-2.9-1.32-6-1.78-8.84-.72-4.57-1.11-9.21-1.38-13.84-.56-9.53-.87-19.55,1-29a74.14,74.14,0,0,1,7-19.19c2.2.45,2.88,4.22,3.58,6A99.26,99.26,0,0,1,75.46,267a103,103,0,0,1-1,32.54c-.76,3.69-.81,13.13-6.22,12.51A11.39,11.39,0,0,1,60.17,306.69Z"/><path class="cls-15" d="M62.29,317.43c3.77-11.39,1.3-24.16,4.14-35.78,3-12.3,8.17-23.84,13.08-35.46,0,3.73-.43,7.45-.55,11.15,2.56-4.72,4.13-10,6.58-14.79,1.64-3.22,4.36-5.28,6.54-8,1.51,5-2,12.67-3.5,17.38-3,9.36-6.13,18.81-9.55,28-3.11,8.38-4.67,17.62-8.36,25.72-1.39,3-3.57,5.46-5.11,8.37C64.85,315.38,64.39,317.21,62.29,317.43Z"/><path class="cls-15" d="M60.21,324.35c3.74-8.51,5.52-17.81,8.82-26.51,3.41-9,6.45-18.07,10.35-26.89,2.85-6.46,5.64-11.52,10.38-16.69,2-2.18,4.34-5.24,6.88-6.44,0,3.07-1.37,5.74-2.5,8.56-2.46,6.16-3.62,12.81-4.64,19.41a120.64,120.64,0,0,1-8.67,29.62c-2.45,5.54-4.47,14.21-9.39,18.08C68.67,325.67,64,325.68,60.21,324.35Z"/><path class="cls-15" d="M58.15,316.82a129.74,129.74,0,0,0,7-18.42,142.09,142.09,0,0,1,21.12-45c5.17-7.27,10.83-13.55,16.65-20.21,1.52-1.73,6-8.31,8.84-7.87,4,.61,1.89,9.33,1.53,11.34-1.17,6.55-4,12.64-6.69,18.69A117.65,117.65,0,0,1,92.93,279c-3.35,4.34-6.89,8.55-10.3,12.84-2.59,3.25-4.54,6.87-6.93,10.25-4.23,6-8.06,12.28-11.67,18.61-.58,1-1.14,3.1-2.41,3.31S56.09,321.73,58.15,316.82Z"/><path class="cls-15" d="M55.06,332.13l7.76-17.58c3.88-8.79,7-18.77,12.37-26.79,6.47-9.75,15.15-16.28,23.41-24.28,3.09-3,9.53-8.05,14.24-6.79-1.35,3-1.85,6.14-3.65,8.92a92.57,92.57,0,0,1-6.12,7.58c-2.06,2.54-3.53,5.94-6,8.06,1.21-1.85,4.11-2.77,6.06-3.68,2.55-1.2,4.87-2.62,7.36-3.92,2.67-1.39,6.56-3,9.63-2.45-4.77,12.54-17.81,18.78-27,27.69-5.54,5.35-10.28,11.4-15.94,16.68-4.11,3.83-8.1,7.75-12.54,11.14C61.45,329.15,61.07,330.1,55.06,332.13Z"/><path class="cls-15" d="M49.18,301.59c.59-5.45-3.46-10.44-4.67-15.53-1-4.33-2-8.8-3-13.07a32.83,32.83,0,0,1,13.87,8c5.08,5.17,10.95,11.75,12.73,18.91,1.33,5.34,2.8,14.16-1.47,18.82-3,3.24-10.77-1.77-13-4.31a22.59,22.59,0,0,1-3.9-7.87C49.35,305.3,49.52,303.87,49.18,301.59Z"/><path class="cls-15" d="M58.24,308.29a92.86,92.86,0,0,0,4.36-10.42c2.53-8.37,1.64-17,2-25.58.4-11,1.78-21,5.56-31.31,2.67-7.26,5-14.8,8.13-21.88.92-2.07,2.3-4.6,4.11-6,3.47,1.82,2.53,9.1,2.59,12.37.16,7.87-1.39,15.81-2.63,23.53-1.54,9.56-2.08,19-3,28.65-.56,6.12-.87,11.88-2.47,17.82-1,3.61-2,7.25-3.07,10.83-.29,1-.82,3.78-1.7,4.44s-2.9.18-3.93,0C64.94,310.15,61.56,308.23,58.24,308.29Z"/></g><g id="fg"><polygon class="cls-16" points="0 141.5 58.5 206.5 76.5 313.5 95.5 336.5 127.5 475.5 209.5 526.5 241.5 569.5 290.5 656.5 532.5 695.5 701.5 651.5 816.5 640.5 997.5 518.5 1099.5 507.5 1181.5 332.5 1242.5 308.5 1284.5 239.5 1343.5 209.5 1366 187.37 1366 768.5 0 768.5 0 141.5"/></g><g id="fg_lines" data-name="fg lines"><polyline class="cls-17" points="-0.5 185.13 24.98 255.34 77.2 315.57 85.02 480.02 120.16 539.76 127.5 475.5"/><polyline class="cls-17" points="813.78 768 638.98 714.9 469.87 734.12 362.5 720.5 159.36 691.13 120.16 539.76 223.63 629.45 290.5 656.5 362.5 720.5 532.5 695.5 638.98 714.9 918.48 655.68 816.5 640.5"/><polyline class="cls-17" points="221.44 768.5 159.36 691.13 0 528.99"/><polyline class="cls-17" points="85.02 480.02 0 332.13 24.98 255.34"/><polyline class="cls-17" points="835.18 768.5 918.48 655.68 1088.72 576.77 1099.5 507.5 1199.34 442.02 1242.5 308.5 1345.52 264.81 1366.5 231.71 1343.5 209.5"/><polyline class="cls-17" points="1365.5 260.72 1345.52 264.81 1326.5 331.5 1281.5 395.5 1199.34 442.02 1161.95 513.27 1147.5 555.5 1088.72 576.77 1048.56 653.88 860.48 768.5"/><polyline class="cls-17" points="1365.5 455.08 1249.51 500.57 1137.5 602.5 1005.18 768 1048.56 653.88 1137.5 602.5 1147.5 555.5 1249.51 500.57 1281.5 395.5"/></g></svg>