<svg xmlns="http://www.w3.org/2000/svg" viewBox="0 0 92.12 401"><defs><style>.cls-1{fill:#108c48;}</style></defs><g id="Layer_2" data-name="Layer 2"><g id="Layer_1-2" data-name="Layer 1"><path class="cls-1" d="M92.12,136a446.37,446.37,0,0,0-3.05-48.74A139.36,139.36,0,0,1,72.12,96c6.26-6.78,11.43-16.8,14.94-24.85C81.74,32.16,74.12,0,74.12,0,59.64,6.17,47.47,16.15,37.43,28.22,34,45.18,32.12,62,32.12,62c-2.16-5.88-3-14.06-3-22.56C16.46,58.39,8.18,80.61,3.8,101a231,231,0,0,0,9.32,26,87.74,87.74,0,0,1-11-16.89A140.43,140.43,0,0,0,.12,139c2,40,37,59,37,59-2,107,36.79,203,36.79,203l12.21-4c-48-128-40.06-196.5-40.06-196.5,7,2,31.62-2,41.7-33.15-11.31.27-15.64-3.17-15.64-3.17,6.36-1.81,12.86-5.23,18.51-8.8A118.86,118.86,0,0,0,92.12,136Z"/></g></g></svg>