<svg xmlns="http://www.w3.org/2000/svg" viewBox="0 0 752.04 749.9"><defs><style>.cls-1{fill:#fccbb6;}.cls-2{fill:#fabba7;}.cls-3{fill:#f1b49f;}.cls-4{fill:#a46747;}.cls-5{fill:#6a4e30;}.cls-6{fill:#67462c;}.cls-7{fill:#382216;}.cls-8{fill:#915a3b;}.cls-9{fill:#f7bcb8;}.cls-10{fill:#703b34;}.cls-11{fill:#652d27;}.cls-12{fill:#ecd6c5;}.cls-13,.cls-18,.cls-19,.cls-20{fill:none;}.cls-14,.cls-17{fill:#15110e;}.cls-15{fill:#452914;}.cls-16{fill:#414042;}.cls-17{stroke:#15110e;stroke-width:3px;}.cls-17,.cls-18,.cls-19,.cls-20,.cls-21{stroke-miterlimit:10;}.cls-18{stroke:#652d27;stroke-width:2px;}.cls-19{stroke:#382216;}.cls-20{stroke:#915a3b;stroke-width:0.75px;}.cls-21{fill:#231f20;stroke:#231f20;}.cls-22{fill:#618eca;}.cls-23{fill:#567eb3;}</style></defs><g id="Layer_2" data-name="Layer 2"><path class="cls-1" d="M451.13,502.36c-4.59-4.08-11.23-3.83-17.36-11.23s-13.79-36.77-18.64-57.7-6.38-67.66-6.63-70,1.73-13.14,4.8-15.44,8.47-2.69,14.34-4,9.45-2.8,7.41-11.49-.26-6.89,4.85-14.8,5.11-9.45,6.38-14.81.26-40.09,0-44.17-5.36-7.92-11-8.43-10.21,4.09-14,5.11-7.66-5.62-8.42-17.62-4.6-79.4-14.81-94S372.75,112.74,343.9,101s-46.72-15.06-80.43-12c-32.71,3-58,19.91-69.7,28.34s-29.1,33.7-36,62.81-2.55,48-3.32,63.06-2.55,26.56,3.07,44.17c.39,1.22.75,2.43,1.09,3.63a9.86,9.86,0,0,0-6.13,5.19,15.36,15.36,0,0,0-.86,5.4q-.57,15.82-1.16,31.64a40,40,0,0,0,.18,7.34c.81,5.45,3.8,10.29,5.91,15.38,2,4.85,3.27,10,5.88,14.59a17.78,17.78,0,0,0,8.87,8c.16.73.33,1.49.51,2.27,4.86,20.94,4.6,15.06,10.47,24.26s22.73,20.17,27.32,25,4.28,8.95,6.13,36c3.25,47.61-7.47,65.8-7.47,65.8-6.13,13.6,15.89,46.79,30.45,59.3S295.9,630.28,361,625.68s103.14-82.21,104.42-94.21S455.73,506.45,451.13,502.36Z" transform="translate(49.68 -60.62)"/></g><g id="Layer_3" data-name="Layer 3"><path class="cls-2" d="M245.38,275.24a4.7,4.7,0,0,1,.62-1,18.3,18.3,0,0,0,1.75-3.65c1.64-4.15,3.52-8.2,5.4-12.25.33-.7.65-1.39,1-2.06s.66-1.14,1-1.69l3-4.84L257,257.34a28.1,28.1,0,0,0-.31,3c-.08,3.25,1,6.39,1.65,9.57a1.23,1.23,0,0,1,0,.66,1.12,1.12,0,0,1-.49.47c-5.39,3.25-8.5,4.6-12.45,5.28A1.32,1.32,0,0,1,245.38,275.24Z" transform="translate(49.68 -60.62)"/><path class="cls-3" d="M281.72,408.4c-2.1,6.29-8.17,18.38-17.1,20.43s-23.49,4.34-32.43-5.11-7.4-18.94-5.87-26.19,6.08-14.41-1.17-11.09-1.86-9.44-.62-11.26,6.13-9.19,8.52-10.44,4.89-2.2,5.36-2.87.29-3.64-2.87-3.93-8.52-1.05-9.95-2-3-5.93-2.59-8.33-.57-3-2.49,0-2.58,1.34-2.3-1.34-3.73.67-3.54,4.79.48,9.77,2.11,13.79,1.53,8.71-3.93,13-11.3,6.7-17.14,1.82-5.84-18-4.5-23.27,4.6-14.17,4.12-18.09-1-7.09-3.54-8.14c-2.93-1.2-7.38,0-8.33,7.27s-4.64,10.11-6.51,16.95c-1.63,6-2.15,9,0,17.81,2.77,11.39,6.22,20,6.41,21.73s4.69,9.77,7.95,13.12,23.36,20.2,26.52,25,4.73,10.5,6.61,13.6c3.41,5.65,7.08,10.91,16,13.59s34.14,10.18,45.12,12,30.9,10,33.45,15.06,9.7,14.81,4.6,26.56-11.49,10.46-6.39,16.59,15.32,18.9,15.83,35.24,1,36.25-4.85,46.46,7.66,24,41.87,12.77,38.81-10,62.3-30.38,38.3-36.77,39.83-53.11.47-28.08-10.08-35c-9.49-6.21-21.69-3.7-30.38-20.43-8.53-16.41-19.54-56.68-20.56-79.41s-2.81-70.21-2-106,3.06-84.76-12.51-120.51S368.53,100.23,327.43,100s-74.56,7.4-74.56,8.93,15.83,7.15,26,7.92,32.69,6.63,35.24,17.61.25,25.54,4.59,31.66,16.09,12.77,28.09,15.83,21.7,12.9,22.21,15.13-24.76.19-30.89,6.32-3.58,5.62,1,6.38,21.19,17.11,25.79,22.47,22.21,14.3,22,16.85-10.46,8.94-15.57,10.47-24,6.89-35.74,1.79-31.66-14-34-12.26-7.92,11.75,1.53,23.75,39.2,30.51,40.22,33.57.7,14.63,3.19,20.56c3.32,7.91,13,10.11,16.29,14.7s-3,15.93-23.7,18.74S294,379,286.83,380.32s12.77,2.8,16.6,6.38,15.83,9.7,13.27,18.13-6.89,14.55-15.83,13-11.74-11.24-14-13.53S282.58,405.85,281.72,408.4Z" transform="translate(49.68 -60.62)"/><path class="cls-2" d="M243.58,261.19c-1.23,2-2.68,7-1.92,9.22a31.13,31.13,0,0,0,1.49,3.64c.76,1.92,1.91,2.45,1,4.27s-6.54,8.4-7.69,12.51c-1,3.72-2.49,11.2,1.63,14.08,0,0-8.43,9.19-11.11,15.32s-11.79,14.17-11.79,14.17,2.38-20.3,0-28c-2.11-6.79-7.46-19.13-18.5-24.58-9.45.71-19.18-.11-21.93-4.91-4.08-7.15-3.57-27.58,0-39.32,2.34-7.67,4-13.59,6.46-17.63-1.45-.69-3.34-1.94-3.27-3.69.27-5.87,2.94-17.75,5.37-18.77s5.61,2.43,6.76,3.58c1,1,6.19,5.25,8.46,8.54A99,99,0,0,1,217.2,205c13.78-2,25-3.07,25-3.07s-10.22,4.6-7.15,8.17,14.81,3.58,17.87,7.66,8.17,7.66,4.09,15.32-8.14,20.65-12.65,26.87Z" transform="translate(49.68 -60.62)"/><path class="cls-2" d="M159.31,348.44a50,50,0,0,1-3.31-8.31,45.83,45.83,0,0,1-1.21-9.56q-.54-11-.08-22.06a15,15,0,0,1,1-5.66,5.33,5.33,0,0,1,4.36-3.33q2.34,9.68,4.09,19.49a9.65,9.65,0,0,1,.21,2.51,10.21,10.21,0,0,1-1,3,58.49,58.49,0,0,0-3.73,12.13c1.47.63,3.25.14,4.71.79,2,.91,2.58,3.5,2.85,5.72l1.52,12.56c.21,1.77,2.15,9.41.6,10.33C166.86,367.5,160.43,350.69,159.31,348.44Z" transform="translate(49.68 -60.62)"/><path class="cls-2" d="M254.12,306.1c-2.2.79-4.56,1.15-6.7,2.1a6.72,6.72,0,0,1-1.55.57,5.29,5.29,0,0,1-2.32-.29c-1.5-.42-3.12-.93-4-2.21a9.73,9.73,0,0,0,3.08-.49,3.37,3.37,0,0,0,2.12-2.14c.12-.46.1-.93.19-1.39.41-2.09,2.69-3.17,4.72-3.8s4.42-1.15,6.48-.37C261.87,300.25,258,304.71,254.12,306.1Z" transform="translate(49.68 -60.62)"/><path class="cls-2" d="M267.15,321.64a28.1,28.1,0,0,1,3.45-12.11c.42-.77,1.19-1.63,2-1.3.52.21.74.82.9,1.36L276,318a41.4,41.4,0,0,1,1.36,5.59c.17,1.16.23,2.32.3,3.49.2,3.44-.82,8.68-5.52,6.95C267.71,332.4,267,325.6,267.15,321.64Z" transform="translate(49.68 -60.62)"/><path class="cls-2" d="M270.46,207.73c-2.25-2.78-6-4.49-7.09-7.89-1-3,.47-6.15,2.14-8.77,1.17-1.83,2.65-3.71,4.77-4.16a7.13,7.13,0,0,1,4.5.82,26.75,26.75,0,0,1,8.08,6.57c1.34,1.5,2.68,3.19,2.86,5.2a7.48,7.48,0,0,1-1.2,4.36,22.74,22.74,0,0,1-7.48,7.25c-1,.68-2.88,2.47-4,1.53-.55-.48-.85-2-1.2-2.66A13.58,13.58,0,0,0,270.46,207.73Z" transform="translate(49.68 -60.62)"/><path class="cls-2" d="M273.49,391.2a11.11,11.11,0,0,1-1.67-2.29l-4.65-7.76a1.43,1.43,0,0,1-.28-.86c.08-.55.74-.79,1.3-.9l8.48-1.78a44.88,44.88,0,0,1,8-1.19,2,2,0,0,1,1.56.44,2,2,0,0,1,.37,1.06c.36,2.55.63,5.1.79,7.67.18,3,0,5.78-3.84,6.29C280.36,392.29,276,393.57,273.49,391.2Z" transform="translate(49.68 -60.62)"/><path class="cls-2" d="M301.92,237.8c15.58.35,31.13-1.24,46.67-2.54a23.75,23.75,0,0,1,4.46-.09,12.15,12.15,0,0,1,6.8,3c-4.52,2.79-8.12,6.68-13.14,8.45a69.16,69.16,0,0,1-15.13,3.53c-5.64.6-12.18-.63-17.83-1.11a15.59,15.59,0,0,1-5.49-1.25,26.13,26.13,0,0,1-3.3-2.13,32.19,32.19,0,0,0-4-2.31,7.7,7.7,0,0,1-2.57-1.38C296.17,239.34,299.77,237.75,301.92,237.8Z" transform="translate(49.68 -60.62)"/></g><g id="Layer_4" data-name="Layer 4"><path class="cls-4" d="M239,248.32s-9.45-3.32-14.55-3.83-7.66-1.28-14,0-13.54,6.38-13.54,6.38-.25-7.4,14-10.21,16.08-3.06,16.85-6.38,0-4.34,0-4.34,5.94,2.79,7.91,5.87A19.55,19.55,0,0,1,239,248.32Z" transform="translate(49.68 -60.62)"/><path class="cls-4" d="M239.71,236.92s-5.49-10.21-14.55-12.76h7.27s-.25.89,1.28,3.06S240,232.71,239.71,236.92Z" transform="translate(49.68 -60.62)"/><path class="cls-4" d="M158.83,340.9c-1.25-8.68-.79-17.51-.32-26.28l.69-12.78c3.5,5.72,3.5,12.87,2.9,19.55s-1.7,13.51,0,20c1.73,6.77,8.62,14.94,7,22C162.25,360.46,159.77,347.46,158.83,340.9Z" transform="translate(49.68 -60.62)"/><path class="cls-4" d="M214.06,361.9a14.55,14.55,0,0,1-1.75-4.15,12.1,12.1,0,0,1,.37-5.31,14.53,14.53,0,0,1,1.93-4.63,7.07,7.07,0,0,1,4-2.94,48,48,0,0,0-.1,5.75c0,.48.19,1.1.67,1.12a.83.83,0,0,0,.54-.24,6.69,6.69,0,0,0,1.5-2.76,3.27,3.27,0,0,1,2.09-2.21,2.29,2.29,0,0,1,.69,1.91c0,3.41-1.08,6.71-2.19,9.93l-2,5.94C218.6,367.63,214.83,363.32,214.06,361.9Z" transform="translate(49.68 -60.62)"/><path class="cls-4" d="M477.69,564.66c-5.62,20.94-39.32,19.91-43.41,10.72s-14.81-24-23-23-10.72,10.73-14.8,25.54,0,38.29-11.24,46.46-18.38,1-17.87-15.83,9.7-68.93,11.23-78.63,12.77-53.11,10.21-53.11-8.68,5.62-16.33,17.36-12.26,35.24-15.83,51.07S350,557,346,549.34s-14.44-15.89-23.63-19.91-6.51-7.47,2.49-14.37,11.3-19.72,3.83-32.74-38.37-10.72-43.92-11.87-3.32-4.6-3.32-4.6c1.06-2.28,4-4.23,2.36-6.67a31.39,31.39,0,0,0-7-7.95,70.12,70.12,0,0,0-18-9.54,51.28,51.28,0,0,0,19.87-30.52c8.92,2.61,16.51,10.19,25.8,9.81,10-.41,17.66-12.18,14-21.48-.43-1.08-1-2.24-.63-3.35.58-1.87,3.05-2.1,5-2.38,7.86-1.14,13.33-8.35,16.81-15.49s6.05-15,11.87-20.45c1.74-1.61,3.77-3,5-5,1.76-2.9,1.55-6.54,1.29-9.92-.62-8-1.36-16.3-5.64-23s-18.81-12.28-26-8.72a6.93,6.93,0,0,0-2.3,1.43c-1.06,1.13-1.46,2.49,0,4.79.38.6,3.48,4.75,3.77,5.14,3.47,4.71,5.17,7.64,6.29,11.83.87,3.23,2.46,7,.88,10.21-2.32,4.68-5.06,9.21-7.57,13.8-1.89,3.46-3.83,7-6.73,9.64-3.33,3.07-7.67,4.76-11.92,6.34-11,4.08-22.3,7.86-34,7.93-4.42,0-9.23-.66-12.34-3.81,6.16.57,12.05-2.24,18-4,5.49-1.6,11.21-2.3,16.74-3.76.33-.37.61-.67.67-.72.86-.66,1.85-1.13,2.65-1.86,1.6-1.44,1.84-3.24.09-4.62-.77-.61-4.14,1-3.38.1a68.68,68.68,0,0,0,5.87-7.82c1.15-2.35,2.12-4.94,1.78-7.64-.4-3.15-2.91-5.57-5.27-7.7l-4.22-3.82c.28-.11.57-.21.85-.3l-3.41-.52a2.37,2.37,0,0,1-2.48-3.43c1.24-5.51,2.06-11.48-.24-16.63-2.12-4.71-6.84-11.37-11.76-13.56-5.92-2.63-11.48-3.28-14.88-9.62a4.24,4.24,0,0,1-.67-2.68,1.77,1.77,0,0,1,2-1.53,2.65,2.65,0,0,1,1.27,1l5.28,6.41a47.74,47.74,0,0,0,1.94-17.1c-.36-4.88-1.85-8.63-2.53-14-.5-4-1.07-7.94-1.27-11.94a120.19,120.19,0,0,1,.44-14.07q.79-11.32,1.6-22.64c.36-5,.88-10.37,4.26-14,4.76-5.17,13-4.75,19.88-4.22a2.8,2.8,0,0,1,2.15,1.18c.71,1.07.94.1,1.93-.15,7.95-2,12.19,1.06,8.41,4.43-3.07,2.73-12.71,20.11-12.71,24,0,4.31,4.36,7.15,5,11.41.14.84,1.5,1.65,2,2.3a8.47,8.47,0,0,0,2.57,2c10.53,4.95,17.37,6,29.41,8a36.54,36.54,0,0,1-10.51,2.88c6,3,12.86,3.84,19.54,4.62a49.61,49.61,0,0,1-30.36-2,20.69,20.69,0,0,0-6.47-1.3,2.06,2.06,0,0,0-1.34.27,2.16,2.16,0,0,0-.54,2.17c.62,3.29,3.37,5.83,6,7.68a23.9,23.9,0,0,1,5.64,5.35,35.53,35.53,0,0,1,3.64,5.6,145,145,0,0,0,15.28,9.17,6.45,6.45,0,0,0,4.08,1c1.67-.33,2.8-1.86,3.7-3.31,7.25-11.64,11.7-26.14,23.48-33.15,7.88-4.7,18.21-5.38,24.49-12.08a5.87,5.87,0,0,0,1.8-3.34,6.43,6.43,0,0,0-1.74-4.25,35.39,35.39,0,0,0-17.52-12.17c-7.57-2.34-17.62-3.6-19.53-11.29-.87-3.5.49-7.12,1.55-10.57a66.5,66.5,0,0,0,2.66-24.65c-.48-6-3-12.64-5-18.27s-3.13-9.35-7.63-13.7l-9.36-9.07a91.36,91.36,0,0,0-6.93-6.27c-8.61-6.82-19.37-10.43-30.16-12.51-3.64-.7-7.84-1.6-9.54-4.89-1.87-3.62.47-8.08,3.54-10.75,6-5.21,14.62-6.56,22.49-5.41s15.21,4.51,22.44,7.83l28.1,12.93c7.21,3.32,14.59,6.76,20.15,12.41,4.74,4.81,7.95,11.63,7.31,18.22a84,84,0,0,1,19.9,40.36,51.29,51.29,0,0,1,.95,12.72c-.33,5.18-1.75,10.23-2.31,15.39-1.61,14.78,6.72,33.22,18,43.39,2.44-1.1,4.92-2.19,7.47-1.87,6,.76,8.18,8.28,8.93,14.32,2.48,19.91,4.34,42.22-8.06,58-1.34,1.7-2.12,2-2.39,4.15-.41,3.13,1.27,2.1.67,7.46-.42,3.77-3.14,6.43-8.46,8.56s-9.61,3-12.95,5.11c-5.75,3.64-5.42,8.77-5.8,15.56a172.24,172.24,0,0,0,2.3,39.21s5.6,39.57,7.13,52.85,2.05,30.63,2.56,39.31,15.32,3.07,20.42,3.07,24,12.76,37.79,25S483.3,543.72,477.69,564.66Z" transform="translate(49.68 -60.62)"/><path class="cls-4" d="M208.58,105.6c7.15,6.12,13.69,18,50.25,13.59s54.94-13.59,59.54-21.25,1.53-13.28-7.66-13.28-51.59-1-71,5.62S208.58,105.6,208.58,105.6Z" transform="translate(49.68 -60.62)"/><path class="cls-4" d="M372.73,243l-26.79-5.06s7.91-1.84,3.32-4.13-14.55-3.83-13.79-3.83,3.83-6.64,1.53-11.49-4.08-6.64,1.79-5.62a22.38,22.38,0,0,1,10,4.72s-5.17-7.08-5.61-7.34,4.4,1.09,11.68,8.75,11.17,9.69,11.74,11.58,1.92,5,4.15,6.48,6.32,4.28,5.36,4.92A8.37,8.37,0,0,1,372.73,243Z" transform="translate(49.68 -60.62)"/><path class="cls-4" d="M232.61,307.72l-11.76,7.13c-.49.3-1.23.56-1.56.09s0-.92.28-1.31l4.23-6c3.18-4.46,6.49-9.06,11.23-11.81l-.35,4.14a5.55,5.55,0,0,0,0,1.41c.22,1.21,2.13,2.3,1.73,3.42S233.64,307.09,232.61,307.72Z" transform="translate(49.68 -60.62)"/><path class="cls-4" d="M235.93,256.07c-2.46,3.24-4.9,6.8-8.28,9.05A29,29,0,0,1,214,269.53c4.53-.91,7.82-3.54,10.93-6.58a55.94,55.94,0,0,1-26.79,4.72,42.28,42.28,0,0,0,11.44-5.37,55.34,55.34,0,0,1-9.89-.49,18.67,18.67,0,0,1-9-3.87c-.11-.09-.22-.19-.21-.33s.18-.28.34-.36c7.79-3.64,15.71-7.18,24.13-8.95a48.83,48.83,0,0,1,12.53-1.05,38.88,38.88,0,0,1,6.26.82c1,.22,2,.49,3,.81.74.24,2.54.55,3.06,1.14s.2.53-.25,1.16-.78,1.07-1.18,1.6C237.57,253.88,236.75,255,235.93,256.07Z" transform="translate(49.68 -60.62)"/></g><g id="Layer_5" data-name="Layer 5"><path class="cls-5" d="M368.08,203.36c.76,2,1.94,3,3.38,4.94,6.31,7,15,10.76,21.32,17.94,1.87,2.14,3.66,4.57,4,7.39.44,4.21-1.88,8.6-5.29,11.11-20.11,14.81-29.59,19.65-34,40.34-2.39,11.16-2.21,34.23,1.34,45.08,4.62,14.12,12.59,29,7.47,42.95-1.94-2.55-6.22-1.8-8.4.54s-2.91,5.63-3.89,8.67a44.55,44.55,0,0,1-18.52,23.74,22.36,22.36,0,0,0-4.94,3.6c-2.94,3.25-3.1,8.14-5.23,12-2.75,5-8.58,7.59-14.25,8.05s-11.29-.91-16.84-2.15a9,9,0,0,0-4.79-.17c-1.5.51-2.66,1.8-3.94,2.59l-7.93,6.43-3.36,3.78a3,3,0,0,0,2,5.06c8.09.77,16.33.09,24.46-.6,7.74-.66,15.6-1.34,22.86-4.08a60.64,60.64,0,0,0,16.91-10.37c17.72-14.65,30.31-34.58,47.2-50.19,5.21-4.82,10.87-9.27,15-15,9.69-13.37,9.68-31.21,9.29-47.72l-1.26-52.91-.31-3.57c-2-18.95,1.53-46.75-.74-65.68s-9.12-38.46-24.15-50.2a1.72,1.72,0,0,0-1.15-.5,1.78,1.78,0,0,0-1.11.74,71.1,71.1,0,0,0-17.32,44.12c-.15,4.8.23,9.73,2.19,14.11" transform="translate(49.68 -60.62)"/><path class="cls-6" d="M237.52,249.73c-1.72.48-3.54.44-5.29.8a5.65,5.65,0,0,0-4.26,2.88,69.73,69.73,0,0,1,11.55-2.15,2.69,2.69,0,0,0,1.56-.47,2,2,0,0,0,.38-2.16,5.63,5.63,0,0,0-4.11-3.39c-.78-.21-6.25-1.25-6.54-.27-.39,1.32,4.76,2.22,5.39,2.38C237.35,247.63,240.38,248.94,237.52,249.73Z" transform="translate(49.68 -60.62)"/><path class="cls-6" d="M289.82,236.06a11.47,11.47,0,0,1-5.51-6,13.9,13.9,0,0,1-.65-3.19,46.94,46.94,0,0,1,.91-15.94,5.76,5.76,0,0,1,1.94-3.63,4,4,0,0,1,4.48.44,8.88,8.88,0,0,1,2.59,4c1.83,4.84,2.13,10.07,2.91,15.14a39.27,39.27,0,0,0,1.76,7.42c.48,1.31,2.81,5.13-.27,4.69A26.81,26.81,0,0,1,289.82,236.06Z" transform="translate(49.68 -60.62)"/><path class="cls-6" d="M297.7,242.59c-.48-1-.87-2.3-.16-3.18a1.1,1.1,0,0,1,.92-.45,1.68,1.68,0,0,1,.85.43A58.83,58.83,0,0,0,314,247.58c.55.22,1.22.61,1.11,1.19a2.54,2.54,0,0,0-2.66,2.78,4.7,4.7,0,0,0,.7,1.65,30.43,30.43,0,0,1,1.89,3.32c-.88.69-2.49-.78-3.39-1.12a26.39,26.39,0,0,1-4.23-2.09,26,26,0,0,1-6.86-6.16A24,24,0,0,1,297.7,242.59Z" transform="translate(49.68 -60.62)"/><path class="cls-6" d="M214.61,356.5a17.14,17.14,0,0,1-.45-3.19.7.7,0,0,1,.08-.43.68.68,0,0,1,.38-.23,14.71,14.71,0,0,1,5.89-.68,2,2,0,0,1,.72.16,1.52,1.52,0,0,1,.74,1.49,4.52,4.52,0,0,1-.55,1.66l-1,2a7.64,7.64,0,0,1-1.23,2C216.9,361.66,215.14,358.72,214.61,356.5Z" transform="translate(49.68 -60.62)"/><path class="cls-6" d="M415.94,284.48a1.37,1.37,0,0,1-.41-.87c0-.8,1.12-1,1.92-.89a28.24,28.24,0,0,1,14.31,6.1,9.62,9.62,0,0,1,3.68,5.07,10.71,10.71,0,0,1,.11,2.94c-.4,6.94-2.12,14.55-7.79,18.58a7.22,7.22,0,0,1-5.66,1.52,7.52,7.52,0,0,1-4.48-3.92,4.39,4.39,0,0,1-.62-3.67,6.85,6.85,0,0,1,1.95-2.18c1.95-1.81,3.06-4.33,4.12-6.77a12,12,0,0,0,1.24-4.26C424.46,290.92,418.83,288,415.94,284.48Z" transform="translate(49.68 -60.62)"/><path class="cls-6" d="M430.35,321.53a17.06,17.06,0,0,1,3.29-4.16,27.37,27.37,0,0,0,5.59-8.69c2.46-6.44,1.74-13.6,1-20.46l-1.32-12c-.48-4.35-1-8.82-3-12.72l.93.41-.21-2.12a19.23,19.23,0,0,1,6.71,9.4c1.79,5.51,1,11.48.5,17.25-.57,6.8-.7,13.68-2.23,20.33a34.24,34.24,0,0,1-5.39,12.48c-.89,1.23-2.76,4.19-4.51,4.24C429.41,325.52,429.52,323.31,430.35,321.53Z" transform="translate(49.68 -60.62)"/><path class="cls-6" d="M420.47,268.68a12.7,12.7,0,0,0,3.67-4.08,5.8,5.8,0,0,1,1.08-1.59,1.49,1.49,0,0,1,1.78-.22,2.15,2.15,0,0,1,.64,1.37,56.54,56.54,0,0,1,.73,5.79c.15,2.1,0,4.58-1.73,5.78a6.15,6.15,0,0,1-3.82.73c-.89,0-1.93-.19-2.36-1a2.64,2.64,0,0,1-.23-1.31c0-1.47.23-4,.24-5.5" transform="translate(49.68 -60.62)"/><path class="cls-6" d="M307.66,309.31a3.16,3.16,0,0,0,1.83-.14,3.24,3.24,0,0,0,1.14-1.13,20.35,20.35,0,0,0,4.83-13.15c.16-1.79.3-3.7-.52-5.3s-3-2.63-4.5-1.59c-1.64,1.15-1.22,3.63-1.68,5.59a7.57,7.57,0,0,1-3.94,4.67,22.8,22.8,0,0,1-6,1.9c-3.5.76-5.17.28-6.15-3-.8-2.68-2.22-4.83-5.5-5-4.26-.25-10.12,6.31-10.75,10.11C286,306.3,297.35,308.1,307.66,309.31Z" transform="translate(49.68 -60.62)"/></g><g id="Layer_10" data-name="Layer 10"><path class="cls-7" d="M283.7,298.48a4.56,4.56,0,0,1-1.42-.25,3.07,3.07,0,0,1-1.74-3.05,4.67,4.67,0,0,1,1.83-3.16,10.26,10.26,0,0,1,3.35-1.64,22.49,22.49,0,0,1,7.72-1.09,1.66,1.66,0,0,1,.74.14,1.69,1.69,0,0,1,.64.8,7.63,7.63,0,0,1,.79,2.2C296.61,298.62,287.6,298.73,283.7,298.48Z" transform="translate(49.68 -60.62)"/><path class="cls-7" d="M302.21,298.3a9.12,9.12,0,0,0,4.65-6.84,11.9,11.9,0,0,0-4.32-9.57c-2.73-2.09-5.48-4.8-8.3-6.76a21.82,21.82,0,0,1,6.25,2.68c3.73,2,7.46,3.45,9.55,7.08.58,1,2,3.63,2.13,4.79A16.23,16.23,0,0,1,312,295c-.91,2.87-5,5.33-8.21,6-1.24.25-7,.87-7.69-.59A20.09,20.09,0,0,0,302.21,298.3Z" transform="translate(49.68 -60.62)"/><path class="cls-7" d="M252.85,301.69a10,10,0,0,1-3.31-.46,4,4,0,0,1-2.41-2.19,2.57,2.57,0,0,1,.81-3,4,4,0,0,1,1.59-.52,17.8,17.8,0,0,1,7.16,0c1.58.38,6.24,2.14,4.67,4.46C260,302,255,301.7,252.85,301.69Z" transform="translate(49.68 -60.62)"/><path class="cls-7" d="M436.48,278.63a66.32,66.32,0,0,1-1.12-10.06,12.28,12.28,0,0,0-.9-4.38c-.67-1.4-1.84-2.56-2.33-4,3.81-1,7.81,1.8,9.44,5.4s1.46,7.71,1.27,11.66c-.09,1.93.86,8.57-2,8.63C438.19,285.9,436.89,280.55,436.48,278.63Z" transform="translate(49.68 -60.62)"/><path class="cls-7" d="M421.71,293.44c-1.07-2.92-3.84-5.25-3.91-8.36l4.13,2.39c2.76,1.6,5.61,3.27,7.44,5.88a11,11,0,0,1-8.19,17.34c-4.19.32-4.16-4.53-2.53-7.24C420.63,300.17,423.26,297.65,421.71,293.44Z" transform="translate(49.68 -60.62)"/><path class="cls-7" d="M424.67,275.67a6.05,6.05,0,0,0,.43-3.08,8.14,8.14,0,0,0-.8-3.89,2.79,2.79,0,0,0-3.4-1.31c-2.35,1.19-3.9,6.82-3,9.15C419,279.26,423.5,277.86,424.67,275.67Z" transform="translate(49.68 -60.62)"/></g><g id="Layer_12" data-name="Layer 12"><path class="cls-8" d="M376.6,347.83a8.16,8.16,0,0,1-4.94-3.22,11.32,11.32,0,0,1-1.67-4.85,27.76,27.76,0,0,1,.3-9.87,19.93,19.93,0,0,1,3.14-7.49,12.69,12.69,0,0,1,6.42-4.82,9.38,9.38,0,0,1,7.85.95,4.41,4.41,0,0,1,1,.84,9.76,9.76,0,0,1,1.42,2.31,9.43,9.43,0,0,1,.59,4.2,102.3,102.3,0,0,1-1,10.8,16.88,16.88,0,0,1-1.39,4.41,15.19,15.19,0,0,1-2.05,3.56c-1,1.2-2.46,2.94-4.14,3.28A14.19,14.19,0,0,1,376.6,347.83Z" transform="translate(49.68 -60.62)"/></g><g id="lips_2" data-name="lips 2"><path class="cls-9" d="M248.06,347.43c4.25-2.88,9.13-4.69,14-6.27,3-1,6.47-1.8,9.07,0a6.4,6.4,0,0,0,1.8,1.11,3.81,3.81,0,0,0,2.15-.25c2.26-.73,5-2.75,7.27-3.38,5.89-1.62,11.68-.21,17.66,1.07a114.28,114.28,0,0,1,17.41,5.7,163.42,163.42,0,0,1-15.14,14,31.76,31.76,0,0,1-6.75,4.8c-3.34,1.59-7.1,2-10.76,2.46q-5.87.78-11.66,2c-7.06,1.44-13.61,2.42-20.64.85-4.25-1-8.91-2.31-11.93-5.44-1.1-1.14-3.68-3.65-3.79-5.32s3.43-4.38,4.55-5.52A44.6,44.6,0,0,1,248.06,347.43Z" transform="translate(49.68 -60.62)"/></g><g id="lips"><path class="cls-10" d="M277.24,344.1a3.85,3.85,0,0,1,3.52-4.52c6.37-2.06,13-4.15,19.62-3.21,4.35.62,8.39,2.51,12.55,3.91a58.15,58.15,0,0,0,17.39,3c-.33,2.39-3.28,3.25-5.66,3.58-10.14,1.4-20.35,1.69-30.49,3.1-2.5.35-4.91,1.48-7.44,2.17-1.4.37-3.42,1.17-4.85,1.08C277.6,353,277.24,347.36,277.24,344.1Z" transform="translate(49.68 -60.62)"/><path class="cls-11" d="M282.21,353.94a12.89,12.89,0,0,1-3.94-5.26A2.8,2.8,0,0,1,278,347a2.11,2.11,0,0,1,1.63-1.44,5.56,5.56,0,0,1,2.26.08,35.79,35.79,0,0,1,6.35,1.76,2.43,2.43,0,0,1,1.11.67,1.79,1.79,0,0,1-.31,2.26,6.48,6.48,0,0,1-2.13,1.24,17.71,17.71,0,0,0-3.48,2.06" transform="translate(49.68 -60.62)"/><path class="cls-10" d="M243.68,350.32c-2.61,2.3-5.81,5.17-9.22,5.91a10.24,10.24,0,0,0-3.08.76c2.63,2.2,7.53,6.41,10.51,8.11a26.7,26.7,0,0,0-1.67-2.67,5.2,5.2,0,0,1,.54-6,39.39,39.39,0,0,1,12-9.81,47.09,47.09,0,0,1,4.79-2.33c.51-.21,4.33-1.43,3.07-2-.69-.33-3.13.49-3.88.75a38.46,38.46,0,0,0-4.22,1.84A38.92,38.92,0,0,0,243.68,350.32Z" transform="translate(49.68 -60.62)"/></g><g id="Layer_8" data-name="Layer 8"><path class="cls-11" d="M289.78,358.27c3.56-3.71,7.38-7.57,12.35-8.86a28.22,28.22,0,0,1,4.67-.65l17.86-1.49a33.9,33.9,0,0,0-5.84,4c-1.61,1.38-3.08,2.9-4.67,4.3A41.31,41.31,0,0,1,295.3,365c-2.06.43-4.16.7-6.25,1-1.25.2-6.51,1.11-6.67.94C281.5,366.11,288.52,359.58,289.78,358.27Z" transform="translate(49.68 -60.62)"/></g><g id="Layer_18" data-name="Layer 18"><path class="cls-2" d="M373.51,420.66s13.79-15.32,20.43-27.06,13.28-31.15,13.28-31.15-12.4,21.48-15.45,26c-2.67,4-12.51,19.4-14.55,22.85S369.94,423.6,373.51,420.66Z" transform="translate(49.68 -60.62)"/></g><g id="eye_whites" data-name="eye whites"><path class="cls-12" d="M186.81,258.66s1.19-.61,2.67-1.44a27.53,27.53,0,0,0,5.37-3.54c1.35-1.53,10-7.85,16.28-8.62s10.49-1.74,23.25,1.77c10.5,2.89-.55,3.16-.68,3.18a4.11,4.11,0,0,0-.88.28,5.72,5.72,0,0,0-1,.47c-2,1.26-9.64,6-14.52,7.23-5.65,1.44-16.47,1.24-19.82.67S193.8,256.07,186.81,258.66Z" transform="translate(49.68 -60.62)"/><path class="cls-12" d="M297.17,238.87s.13-1.09,3.45-2,12.89-4,15.06-5.58,6.52-4.34,8.94-4.08a92.76,92.76,0,0,1,12.26,2.68c3.59,1.07,14,4.34,16.46,4.59s-1.53,1.72-6.76,2.39a22.64,22.64,0,0,0-9.19,3.48,32.51,32.51,0,0,1-9.45,2.56c-4.34.25-13.66-1-18.38-1.79s-11-1.4-11.75-1.53A.67.67,0,0,1,297.17,238.87Z" transform="translate(49.68 -60.62)"/><path class="cls-13" d="M449.6,201.09" transform="translate(49.68 -60.62)"/></g><g id="Layer_14" data-name="Layer 14"><path class="cls-14" d="M311.73,199.85c5.08-1.08,8.67-1.14,12.36-1.7,3.52-.54,8.62-1.09,12.15-1.63,6.08-.92,9.58-.33,15.66.6,9.46,1.45,17.63,7.2,25.4,12.78-3.16-8.73-9.43-15.13-16.68-20.94a27.54,27.54,0,0,0-6.54-4.31,22.32,22.32,0,0,0-6.48-1.51c-10.73-.73-22.56-.13-33.31.07-5.88.11-11.85.37-17.42,2.25-4,1.35-17.11,10.59-9.53,14.39C294.74,203.56,303.81,201.54,311.73,199.85Z" transform="translate(49.68 -60.62)"/><path class="cls-14" d="M165.56,242.57a12.58,12.58,0,0,1-1.17-1.63c-1.54-2.07-1.2-3-1.26-5.58a7.38,7.38,0,0,1,.41-2.88c1-2.59,1.27-5.6,2.3-8.19a52.36,52.36,0,0,1,3.55-7.85c3.23-5.28,5.94-8.85,11.49-11.59s14.81-4.12,20.78-5.77c11.77-3.25,23.94-6.5,36-4.85a5.67,5.67,0,0,1,2.65.84c1.21.88,1.59,2.48,1.89,3.94l2,9.57c-6.78-1.83-14-.6-20.88.64-10.95,2-13.8,2.61-24.64,5.14-1.55.36-8.8,1.49-10.62,1.88-1,.21-3.87.82-5.33,1.31a13.93,13.93,0,0,0-6.48,4.27c-4.62,5.43-5.23,7.25-8.27,14.63C167.67,236.87,165.92,241.92,165.56,242.57Z" transform="translate(49.68 -60.62)"/></g><g id="Layer_15" data-name="Layer 15"><path class="cls-15" d="M317.21,231a10.68,10.68,0,0,0-.87,4.79,14.78,14.78,0,0,0,3.07,6.51s2.2,1.15,9.76,0c1.45-.22,2.7-.43,3.78-.63a35.45,35.45,0,0,0,6.09-1.48,7.25,7.25,0,0,0,1.14-4.79c-.22-3.07-.76-6-.76-6s-9.1-2.49-12.26-1.72S317.21,231,317.21,231Z" transform="translate(49.68 -60.62)"/><path class="cls-15" d="M204.42,250a8.25,8.25,0,0,0,2.2,5.64,15.62,15.62,0,0,0,3.35,3.07,34.47,34.47,0,0,0,6.9-1,47.57,47.57,0,0,0,8.65-3.11A21.11,21.11,0,0,0,226,249a28.3,28.3,0,0,0-1.49-5s-6.22-1.44-10,0a82.54,82.54,0,0,0-10.16,5.46Z" transform="translate(49.68 -60.62)"/><path class="cls-16" d="M351,250" transform="translate(49.68 -60.62)"/><path class="cls-16" d="M315.48,239.79" transform="translate(49.68 -60.62)"/></g><g id="hair"><path class="cls-14" d="M154,252.09c1.42-5.93,2.86-11.89,3.27-18,.84-12.27,0-24,.61-36.35.81-16.6,5.82-33.62,14.93-47.68,4.81-7.42,11.6-18.66,18.39-24.32,9.5-7.92,16.4-14.62,30.89-20.17,11.93-4.58,49.74-14,73.13-13.28s54,14.87,65.51,22.47S377.3,129.6,387.05,143c3.18,4.38,8.93,29.62,11.23,41.23s13.15,59.49,13.66,61.66.38,6.51,1.66,8.43,8.3,5.87,8.3,5.87,8.55-7.91,12.64-8a19.73,19.73,0,0,1,8.17,1.91l-.77-14.55L438.49,232a16.77,16.77,0,0,0,1.92-10c-.77-5.49-3.58-16.47-3.58-16.47s3.19-16.85,2.81-23.61-3.19-20.05-3.19-21.2.38-3.83-.77-6-12.89-20.42-15.57-26.68-3.45-11.23-12.26-16.46a101.57,101.57,0,0,0-19.14-8.43l-2.94-5.87-19.92-9.58s-6-10.21-14.42-12.12S336.75,72,332.66,72.53a64.08,64.08,0,0,0-35.61-11.74c-21.2-.39-26.17,0-26.17,0s-11.14,8.3-17.91,9.44-14.14.64-23.58,1.15-15.83,4.09-17,5.49,4-1.91,7.91-1.78,5.24.25,5.24.25-9.19.77-16.34,4.21S188.66,99.34,187,103s-15.57,30.13-22.46,47.75-14.3,31.91-15.71,37.53-6.12,19.66-7.53,27.32Z" transform="translate(49.68 -60.62)"/><path class="cls-17" d="M383.57,172.33c3.19,1.5,4.73,3.14,7.06,5.17,5.05,4.41,10.42,16.88,14.29,22.35" transform="translate(49.68 -60.62)"/><path class="cls-17" d="M381.39,163.3a36.9,36.9,0,0,1,8.42,5.58c5.05,4.4,9.8,12.45,13.67,17.92" transform="translate(49.68 -60.62)"/><path class="cls-17" d="M379.21,153.12a37.23,37.23,0,0,1,8.42,5.58c5.05,4.41,9.8,12.45,13.67,17.93" transform="translate(49.68 -60.62)"/><path class="cls-17" d="M379.21,148.65a37.23,37.23,0,0,1,8.42,5.58c5.05,4.41,9.8,12.45,13.67,17.93" transform="translate(49.68 -60.62)"/><path class="cls-17" d="M379.21,144.38a37.23,37.23,0,0,1,8.42,5.58c5.05,4.41,9.8,12.45,13.67,17.93" transform="translate(49.68 -60.62)"/><path class="cls-17" d="M378.11,139.79a37.53,37.53,0,0,1,8.43,5.58c5,4.41,9.79,12.45,13.66,17.93" transform="translate(49.68 -60.62)"/><path class="cls-17" d="M378.11,135.39a37.19,37.19,0,0,1,8.43,5.58c5,4.4,9.79,12.44,13.66,17.92" transform="translate(49.68 -60.62)"/><path class="cls-17" d="M377.3,131.29a37.3,37.3,0,0,1,8.43,5.58c5,4.41,9.79,12.45,13.66,17.93" transform="translate(49.68 -60.62)"/><path class="cls-17" d="M375.24,126.51a36.9,36.9,0,0,1,8.42,5.58c5.06,4.4,9.8,12.44,13.67,17.92" transform="translate(49.68 -60.62)"/><path class="cls-17" d="M382.73,167.7c3.19,1.5,4.73,3.14,7.06,5.17,5.06,4.41,9,11.73,12.85,17.2" transform="translate(49.68 -60.62)"/><path class="cls-17" d="M381.39,158.89c3.19,1.5,4.73,3.14,7.06,5.17,5.05,4.41,9,11.73,12.85,17.2" transform="translate(49.68 -60.62)"/><path class="cls-14" d="M257.58,86.84s3,3,9.88,5.25c9.3,3.1,17.79,19.32,18.56,20.94,0,0-1.28-12.23-2.94-17.1s-7.15-12.38-7.15-12.38,8.3,8.49,10.09,13c1.43,3.63,3.24,12.77,3.24,12.77s.59-15.38-3.5-20.84" transform="translate(49.68 -60.62)"/><path class="cls-14" d="M285.44,71.17s11.71,4.12,15.18,9.64,8.7,16.12,9.46,17.74c0,0-1.27-12.23-2.93-17.1S300,69.07,300,69.07s8.3,8.49,10.08,13c1.44,3.63,3.25,12.77,3.25,12.77s.58-15.38-3.5-20.84" transform="translate(49.68 -60.62)"/><path class="cls-14" d="M242,82.16s12.18,4.24,18.4,10.64,20,17.33,21.56,19.27c0,0-6-15.71-9.77-21.69S259,75.88,259,75.88,272.17,85,276,90.51c3.06,4.41,8.58,15.95,8.58,15.95S279.73,86.17,272.77,80" transform="translate(49.68 -60.62)"/><path class="cls-14" d="M261.08,115.71c2.47-2.06-2.92-25.56-11.81-31.2" transform="translate(49.68 -60.62)"/><path class="cls-14" d="M218.49,84.31s15.76,2.56,22,9,16.45,19,18,21c0,0-5-16.16-8.83-22.14s-14.14-14-14.14-14,13.2,9.12,17,14.63" transform="translate(49.68 -60.62)"/><path class="cls-14" d="M227.22,84.31s15.77,2.56,22,9,16.45,19,18,21c0,0-6-15.71-9.76-21.69S244.22,78,244.22,78s13.19,9.12,17,14.63c3.07,4.41,8.59,16,8.59,16S265,88.32,258,82.16" transform="translate(49.68 -60.62)"/><path class="cls-14" d="M260.25,77.22s16,.74,23.21,6.37,19.29,17,21.11,18.74c0,0-8.4-14.89-13.1-20.39s-15.36-12.87-15.36-12.87,14.51,7.54,19.16,12.57c3.73,4,11,14.83,11,14.83s-8-19.56-15.87-24.87" transform="translate(49.68 -60.62)"/><path class="cls-14" d="M215.33,80s9.38,6.37,11.13,13.36,3.87,20.24,4.16,22.26c0,0,1.78-14.67,1.47-20.66s-3.39-15.6-3.39-15.6,5.33,11.13,5.83,16.74c.4,4.49-.16,15.57-.16,15.57s4.17-18.18,1.85-25.17" transform="translate(49.68 -60.62)"/><path class="cls-14" d="M231.21,85.49s16,.75,23.21,6.38,19.29,17,21.11,18.73c0,0-8.4-14.89-13.1-20.38s-15.36-12.87-15.36-12.87,14.51,7.53,19.16,12.56c3.73,4,11,14.84,11,14.84s-8-19.56-15.87-24.88" transform="translate(49.68 -60.62)"/><path class="cls-14" d="M224.31,91.1a92.13,92.13,0,0,0-2.65,30.14s5.66-22.72,15.87-30.7" transform="translate(49.68 -60.62)"/><path class="cls-14" d="M225.56,92.78s-10.47,13.64-9,29.44c0,0,5.65-22.73,15.86-30.7" transform="translate(49.68 -60.62)"/><path class="cls-14" d="M222.45,94.68s-13.12,11.87-14.94,27.65c0,0,10.26-21.54,22-27.87" transform="translate(49.68 -60.62)"/><path class="cls-14" d="M220.38,89.29s-13.13,11.87-14.95,27.65c0,0,10.27-21.54,22-27.87" transform="translate(49.68 -60.62)"/></g><g id="Layer_16" data-name="Layer 16"><path class="cls-18" d="M230.17,358.16c10.15,1.16,20.42-.46,30.44-2.48,3-.61,3.49-1.83,6.52-1.26,4.84.92,12.81,1.6,17-.55,3.34-1.71,5.77-3.68,8.83-4.44a74,74,0,0,1,7.4-1.35c7.87-1.18,15.85-1.17,23.79-1.68,2.74-.18,5.6-.46,7.95-1.89s4-4.37,3.12-7" transform="translate(49.68 -60.62)"/><path class="cls-19" d="M296.52,234.89A17.33,17.33,0,0,0,300,232a21.45,21.45,0,0,0,2-3.09,52.65,52.65,0,0,1,5.72-8.42A22.86,22.86,0,0,1,312,217a17.51,17.51,0,0,1,4.4-1.89c11.23-3.55,24.16-3.11,34,3.41a7.79,7.79,0,0,1,1.67,1.35c.48.54.82,1.2,1.25,1.78a7.45,7.45,0,0,0,1.4,1.46" transform="translate(49.68 -60.62)"/><path class="cls-20" d="M304.53,212.82c7.49-2.7,15.36-4.63,23.32-4.54s16.06,2.31,22.34,7.22" transform="translate(49.68 -60.62)"/><path class="cls-19" d="M184.62,250.82c1.57-1.34,2.48-1.75,3.4-3.6a40.21,40.21,0,0,0,2-5,12.55,12.55,0,0,1,3.95-5.12c6.55-5.08,16-6.68,25.49-7.1a12.3,12.3,0,0,1,5,.53,30.28,30.28,0,0,1,5.44,3.24c1.4,1,2.18,1.69,3.58,2.69a25.74,25.74,0,0,1,3.51,3.26l2.51,2.63" transform="translate(49.68 -60.62)"/><path class="cls-20" d="M185.22,237.9l3.34-2.3a70.76,70.76,0,0,1,7.43-4.68c6.62-3.43,18.21-5.13,26.82-5.51a14.6,14.6,0,0,1,5.56.49" transform="translate(49.68 -60.62)"/><path class="cls-21" d="M326.12,236.92a5.75,5.75,0,0,1-1.27-3.83,2.81,2.81,0,0,1,.61-2,3.3,3.3,0,0,1,1.5-.73,8.7,8.7,0,0,1,2.68-.39,3.76,3.76,0,0,1,2.46,1,4.39,4.39,0,0,1,1.08,2.66,4,4,0,0,1-.79,3.16A4.26,4.26,0,0,1,326.12,236.92Z" transform="translate(49.68 -60.62)"/><path class="cls-21" d="M213.08,252.7a5.85,5.85,0,0,1-1.27-3.84,2.86,2.86,0,0,1,.62-2,3.21,3.21,0,0,1,1.49-.73,8.49,8.49,0,0,1,2.68-.39,3.67,3.67,0,0,1,2.46,1,4.34,4.34,0,0,1,1.08,2.66,4,4,0,0,1-.78,3.16A4.27,4.27,0,0,1,213.08,252.7Z" transform="translate(49.68 -60.62)"/></g><g id="Layer_13" data-name="Layer 13"><path class="cls-14" d="M302,240.14s-10.43-.36-3.79-3.36c2.54-1.15,5.51-1.55,9-2.82a86.77,86.77,0,0,0,9-4.22,20.77,20.77,0,0,1,8.42-2.48c2.39-.09,5.9-.87,11.17.86,2.7.88,7,2.36,9.58,3.06s6.92,2.06,8.71,2.32,2.82,1.23,1.47,1.61-4.38,2.92-9.71,1.15S334,231,331.1,230.41a26.73,26.73,0,0,0-7-.47,38.31,38.31,0,0,0-8.12,2.39c-1.72.83-8.46,3.45-10.82,4.21s-6.44,2.31-5.61,2.51A14.08,14.08,0,0,1,302,240.14Z" transform="translate(49.68 -60.62)"/><path class="cls-14" d="M236.46,245.64s-15.56-5-22.26-3.45a52.91,52.91,0,0,0-19.73,9.52,95.35,95.35,0,0,0-9.57,8.48s10.72-2.68,13.78-5,6.52-6.15,9.39-7.38,4.78-2.77,13.4-2.38a82.4,82.4,0,0,1,14.73,1.9Z" transform="translate(49.68 -60.62)"/></g><g id="Layer_17" data-name="Layer 17"><path class="cls-22" d="M213.81,516.4s20.3,121.79,119.49,100.73,145.15-62,132.9-96.13l-9.77-17.84c33.71,26.5,99.46,30.92,138.7,48.22,13.39,5.91,26.76,12.78,38.4,21.66,9.49,7.23,14.65,14.1,20.84,24.3,4.55,7.52,12.42,33.41,14.8,41.87,18,64,30.8,104.89,33.2,171.31h-752l4.6-33.31c8.45-62.92,13.79-70.85,25.28-140.11,2.11-12.78,16.59-41,26.42-49.46,14.28-12.25,47.18-24.41,65.49-28.73,48.2-11.36,97.2-27.44,140.62-51.08Z" transform="translate(49.68 -60.62)"/><path class="cls-23" d="M216.88,499.36s-2.17.27-2,14.46c.21,19.49,3.92,35.52,39.92,59.65s76.32,38.68,105.32,32.93,72-33.51,83.87-52.56,16.09-26.71,10.34-42-17.61-17.62-17.61-17.62,5.23-.38,8,.9,17.49,10.08,18.64,12.12,17.1,13.15,8.93,38.94-37.12,56.63-72.38,76.72c-35.62,20.3-64,14.76-91.28,8.43-24.3-5.64-58.63-21.62-77.36-43.41-19.15-22.27-23.23-34.72-26.81-50.55-3-13.21,2.72-25.24,9.51-34.63A8.18,8.18,0,0,1,216.88,499.36Z" transform="translate(49.68 -60.62)"/></g></svg>